<?xml version="1.0" standalone="no"?><!DOCTYPE svg PUBLIC "-//W3C//DTD SVG 1.1//EN" "http://www.w3.org/Graphics/SVG/1.1/DTD/svg11.dtd" ><svg xmlns="http://www.w3.org/2000/svg"><metadata></metadata><defs><font id="SentyPea" horiz-adv-x="2203"><font-face font-family="Senty Pea 新蒂绿豆体" font-weight="400" font-stretch="normal" units-per-em="2048" panose-1="3 0 6 0 0 0 0 0 0 0" ascent="2400" descent="-600" x-height="0" bbox="-240 -861 2154 1892" underline-thickness="150" underline-position="-217" unicode-range="U+0028-ff1a" /><missing-glyph horiz-adv-x="2199"  /><glyph glyph-name="uni4E00" unicode="&#x4e00;" d="M1692 763 Q1727 744 1746 744 L1746 691 Q1746 655 1064 547 L1064 565 Q810 512 543 512 L453 512 L453 547 Q459 584 488 584 Q506 548 506 529 L543 529 L543 600 Q920 600 1692 763 Z" /><glyph glyph-name="uni4E0A" unicode="&#x4e0a;" d="M839 1168 L858 1168 Q1000 1168 1000 989 L1000 845 Q1000 827 982 827 L1000 792 Q1000 721 946 270 L858 270 Q893 621 893 1060 Q867 1060 839 1115 L839 1168 ZM1414 792 L1449 792 L1467 719 L1432 701 L1305 701 Q1228 701 1018 611 L1018 665 Q1190 792 1414 792 ZM1090 252 L1126 234 Q1365 252 1522 252 Q1719 234 1719 179 L1719 108 L1683 108 Q1436 162 1396 162 Q1125 138 1090 126 L1055 144 L570 108 Q480 131 480 162 L480 198 Q485 234 515 234 L533 234 Q570 229 570 198 Q952 221 1090 252 Z" /><glyph glyph-name="uni4E0B" unicode="&#x4e0b;" d="M1693 1339 L1710 1302 L1710 1285 Q1710 1256 1316 1176 Q1316 1158 1261 1158 Q1297 1107 1334 799 L1334 709 L1728 530 L1728 441 L1693 441 Q1617 441 1352 620 L1334 620 L1316 530 L1316 225 Q1316 -63 1261 -63 L1225 -63 Q1190 -63 1190 -9 Q1225 586 1225 799 L1225 853 Q1225 944 1190 1069 L1225 1158 L1190 1158 Q726 1014 524 1014 Q490 1032 471 1032 Q489 1068 489 1087 L561 1087 Q689 1087 1118 1231 Q1648 1339 1693 1339 Z" /><glyph glyph-name="uni4E0D" unicode="&#x4e0d;" d="M1288 1339 L1306 1302 L1306 1284 Q1040 867 929 744 L947 709 L947 691 Q874 691 551 297 Q412 206 372 206 L354 242 L354 297 Q457 297 785 709 Q1015 974 1144 1213 Q831 1122 588 1122 L516 1122 Q480 1122 480 1158 L480 1176 Q747 1176 1288 1339 ZM1020 691 L1036 691 Q1085 691 1126 440 Q1101 -63 1036 -63 L1020 -63 Q983 -63 983 -27 Q1020 281 1020 476 L1020 547 L983 673 L1020 691 ZM1270 529 Q1376 529 1755 224 Q1808 224 1845 153 L1845 135 Q1845 98 1808 98 L1773 98 Q1580 188 1467 314 Q1304 458 1199 458 L1162 458 L1162 476 Q1180 529 1270 529 Z" /><glyph glyph-name="uni4E0E" unicode="&#x4e0e;" d="M1000 1473 Q1102 1473 1126 1365 Q1312 1221 1378 1221 L1378 1168 Q1378 1126 1018 1024 Q1018 951 946 646 Q1093 736 1288 736 L1396 736 Q1719 690 1719 574 Q1719 244 1414 -127 Q1333 -198 1288 -198 Q1155 -139 1037 35 Q1043 72 1073 72 Q1181 6 1270 -90 L1305 -90 Q1570 192 1630 556 L1630 574 Q1547 640 1342 665 L1305 646 L1288 646 Q1270 646 1270 665 L929 556 Q858 584 858 610 Q858 701 929 1006 L749 988 L659 988 L659 1042 L749 1059 L749 1042 Q919 1095 946 1095 Q946 1121 982 1383 L964 1455 L1000 1473 ZM1073 1293 L1055 1168 L1055 1114 Q1252 1183 1252 1203 Q1108 1239 1108 1274 L1073 1293 ZM1378 413 L1396 413 Q1421 413 1449 358 L1449 305 Q1228 323 1217 323 Q720 198 533 198 L515 198 Q480 198 480 233 L480 287 Q539 287 570 269 Q1130 413 1378 413 Z" /><glyph glyph-name="uni4E24" unicode="&#x4e24;" d="M1324 1372 L1343 1336 L1343 1283 Q1085 1210 481 1139 L446 1139 Q410 1139 410 1175 Q465 1228 1091 1318 Q1091 1345 1324 1372 ZM1306 1175 L1324 1175 Q1360 1175 1378 1031 Q1360 960 1360 905 L1378 905 L1700 960 Q1821 960 1898 763 Q1898 455 1664 63 Q1664 48 1485 -98 L1431 -98 Q1260 -98 1180 207 L1217 207 L1378 27 L1378 -8 L1449 -8 Q1666 179 1683 350 L1664 350 Q1570 350 1343 565 L1324 565 Q1324 448 1180 207 Q1108 225 1108 279 L1108 332 Q885 448 786 584 Q786 486 678 207 L678 189 L733 9 L696 -8 L678 -8 Q552 131 481 350 Q481 404 446 404 L446 423 L463 458 Q392 458 302 584 L302 600 L410 691 Q392 852 355 905 Q355 1122 571 1122 L607 1122 L607 1086 Q463 1058 463 978 L516 709 L534 709 Q661 744 715 744 L715 996 Q719 1031 750 1031 L786 1031 L804 960 L786 960 L804 924 L804 781 Q1252 853 1252 924 Q1270 1060 1288 1104 Q1270 1138 1270 1157 L1306 1175 ZM1360 817 L1360 763 L1343 637 Q1442 637 1629 458 Q1656 458 1700 423 L1736 423 Q1790 638 1790 744 L1790 799 Q1772 870 1593 870 Q1563 870 1360 817 ZM804 655 L804 600 Q886 600 1038 494 L1108 458 L1108 655 L1162 655 Q1162 619 1180 619 Q1168 494 1144 494 Q1162 459 1162 440 L1180 440 Q1252 759 1252 799 L1234 799 Q804 677 804 655 ZM552 600 L607 350 L642 350 Q642 386 696 637 L696 655 Q552 613 552 600 ZM410 547 L446 530 L446 584 Q410 578 410 547 Z" /><glyph glyph-name="uni4E2A" unicode="&#x4e2a;" d="M993 1428 L1011 1428 Q1064 1410 1064 1320 Q1024 1272 993 1123 Q1177 1123 1423 943 Q1852 631 1909 530 L1909 512 Q1909 487 1855 459 Q1656 565 1621 565 L1621 602 L1657 602 L1657 638 Q1149 1016 1137 1016 Q1099 1016 956 1069 Q770 653 382 404 L327 404 Q292 404 292 441 L292 477 Q455 477 814 997 Q974 1348 974 1393 Q956 1393 956 1410 L993 1428 ZM1011 908 L1064 908 Q1100 902 1100 872 L1082 836 Q1132 836 1155 656 L1137 656 Q1155 621 1155 602 Q1208 11 1208 -81 L1208 -135 L1118 -152 Q1064 -60 1064 27 L1064 100 Q1070 136 1100 136 Q1064 276 1029 692 L1046 692 Q1011 751 1011 800 L1011 908 Z" /><glyph glyph-name="uni4E2D" unicode="&#x4e2d;" d="M972 1402 L1080 1402 Q1187 1371 1187 1150 L1206 1150 Q1358 1168 1457 1168 L1727 1168 Q1835 1157 1835 1115 L1835 1078 Q1835 1006 1618 934 L1636 899 L1636 845 L1313 755 L1313 772 Q1187 772 1187 575 Q1206 504 1206 449 Q1206 369 1187 216 L1206 108 L1187 108 L1206 72 L1206 18 Q1206 -113 1152 -126 L1134 -89 L1134 -54 Q1134 156 1098 234 L1116 270 Q1116 287 1098 287 L1116 360 Q1098 602 1098 719 L757 646 L739 683 L739 737 Q778 737 1116 827 L1116 1042 L1098 1042 Q726 1001 595 916 Q558 916 558 953 L558 971 Q558 1035 1043 1132 L1098 1132 L1080 1312 Q965 1347 936 1347 L936 1365 Q942 1402 972 1402 ZM1386 1078 L1242 1078 Q1206 1072 1206 1042 L1206 863 Q1501 930 1709 1078 Q1691 1078 1691 1097 Q1479 1078 1386 1078 ZM397 1060 Q585 852 739 467 L739 431 L667 431 Q511 752 361 988 L361 1024 Q367 1060 397 1060 Z" /><glyph glyph-name="uni4E3A" unicode="&#x4e3a;" d="M1019 1490 L1054 1490 Q1251 1454 1251 1310 Q1198 986 1108 736 L1108 718 Q1364 807 1574 807 Q1754 807 1754 683 L1754 592 Q1754 321 1538 -215 L1450 -215 Q1226 -15 1145 161 L1001 305 Q1001 331 1054 360 L1145 360 Q1224 360 1324 269 L1324 252 L1215 252 L1162 287 L1108 287 Q1114 240 1466 -89 Q1682 406 1682 700 Q1624 736 1574 736 L1538 736 Q1019 676 1019 539 Q927 256 659 -36 Q659 -53 588 -89 L535 -89 Q498 -89 498 -53 L498 0 L535 -18 L552 -18 Q871 319 928 592 Q652 502 588 502 L444 502 L444 557 L517 557 Q1019 657 1019 789 Q1126 1019 1162 1328 Q1152 1328 1019 1490 ZM641 951 L659 951 Q725 897 785 897 L875 915 L875 826 L749 807 Q691 826 605 915 Q611 951 641 951 Z" /><glyph glyph-name="uni4E3B" unicode="&#x4e3b;" d="M814 1472 L832 1472 Q1369 1353 1369 1311 L1369 1293 Q1369 1258 1263 1221 Q1263 1296 940 1364 L814 1454 L814 1472 ZM1137 1059 L1280 1059 L1369 1042 L1369 988 Q1369 951 1334 951 L1298 951 L1298 988 Q692 880 653 880 L562 898 L562 933 Q1101 1024 1137 1059 ZM940 862 L1029 862 Q1137 806 1137 665 L1137 467 L1369 575 Q1400 593 1460 593 L1477 593 Q1513 587 1513 557 Q1453 498 1154 396 Q1119 379 1083 -17 L1119 -35 L1190 -35 Q1692 -35 1692 -107 L1692 -124 Q1692 -151 1639 -178 L1603 -178 Q1513 -178 1513 -124 Q1495 -124 1495 -142 L1316 -124 L1083 -124 L1011 -196 L940 -196 L940 -161 L958 -124 L922 -124 Q903 -124 617 -161 L599 -124 L599 -71 Q987 -35 1011 -35 L1011 37 Q1011 78 993 109 Q1011 131 1029 360 L1011 360 Q769 234 599 234 Q516 269 509 306 L509 323 Q509 354 617 396 L635 360 L635 342 L580 342 Q586 306 617 306 L1046 432 L1046 521 Q1046 562 1064 593 L1011 807 L975 807 L940 790 L940 862 Z" /><glyph glyph-name="uni4E48" unicode="&#x4e48;" d="M803 1302 Q1055 1289 1055 1248 L1055 1213 Q1028 1132 659 799 Q659 744 588 744 L588 709 L659 709 L659 691 Q659 656 623 656 L551 656 Q526 656 498 709 L498 744 Q502 777 929 1213 Q803 1281 803 1302 ZM1091 888 L1162 888 L1162 817 Q1053 614 677 206 L677 153 L695 153 Q1138 206 1378 350 L1360 440 L1360 476 L1414 476 Q1581 320 1701 9 L1701 -9 L1664 -27 L1593 -27 Q1593 32 1432 279 L1414 279 Q989 62 732 62 L623 62 Q596 62 551 135 Q575 267 876 565 Q1040 758 1091 888 Z" /><glyph glyph-name="uni4E49" unicode="&#x4e49;" d="M1315 1329 L1351 1329 Q1351 909 1100 395 Q1454 35 1728 35 Q1800 -1 1800 -19 Q1800 -54 1746 -54 Q1345 -54 1207 143 Q1207 167 1009 323 Q875 172 578 90 L434 90 Q399 90 399 125 L399 143 L452 143 Q663 143 956 395 Q733 718 543 718 L543 772 L649 772 Q780 772 1027 502 Q1171 769 1207 988 L1189 988 Q812 1001 812 1095 L812 1150 Q871 1150 974 1077 L1045 1077 L1225 1059 Q1267 1329 1315 1329 Z" /><glyph glyph-name="uni4E4B" unicode="&#x4e4b;" d="M1002 1374 Q1280 1273 1306 1213 Q1306 1187 1253 1160 L1235 1160 Q1026 1253 930 1339 L930 1357 Q970 1357 1002 1374 ZM1235 961 Q1361 938 1361 835 L1361 817 Q1361 644 912 244 L1037 244 Q1195 244 1648 9 Q1719 9 1719 -27 Q1692 -99 1666 -99 L1648 -99 Q1581 -36 1469 -27 Q1159 150 1002 153 L912 153 Q798 153 534 45 L516 45 Q480 45 480 81 L480 100 Q639 244 786 244 Q1289 668 1289 853 Q1254 872 1235 872 Q749 800 642 800 Q624 835 624 853 Q642 888 642 908 Q741 890 786 890 L1235 961 Z" /><glyph glyph-name="uni4E5F" unicode="&#x4e5f;" d="M847 1357 L920 1357 Q920 1337 901 1304 Q920 1150 920 1051 L920 961 Q1158 1051 1188 1051 Q1297 1051 1297 944 L1297 926 Q1297 567 1100 207 L1064 207 Q1037 207 1009 260 L1009 368 L1064 332 Q1206 680 1206 961 L1188 961 Q920 908 920 782 Q920 728 901 728 L920 691 L920 656 Q920 417 829 368 Q755 385 668 548 L668 567 L704 567 L812 476 Q812 567 829 567 Q829 585 812 585 L829 764 L829 800 L812 800 Q606 702 524 638 Q524 63 650 63 Q767 27 812 27 L847 27 Q1007 27 1064 45 Q1220 27 1332 27 L1548 27 Q1872 81 1872 153 L1872 244 L1836 244 L1836 297 Q1842 332 1872 332 Q1836 511 1836 638 L1854 638 Q1900 638 1980 135 Q1980 -35 1387 -81 L1350 -63 L1314 -81 L1279 -63 Q1261 -63 1261 -81 L1171 -63 L812 -63 Q453 -63 453 225 Q434 352 434 441 L453 441 L434 476 L434 585 Q299 548 290 548 Q255 567 237 567 L254 602 L219 602 Q219 691 254 691 Q309 691 309 638 L327 638 Q434 699 434 709 Q440 1051 469 1051 Q502 1069 542 1069 Q578 1064 578 1032 L578 997 Q524 928 524 835 L524 764 L542 764 L812 908 Q829 938 829 979 L829 1249 L812 1339 L847 1357 Z" /><glyph glyph-name="uni4E86" unicode="&#x4e86;" d="M1334 1383 L1387 1383 Q1414 1383 1441 1330 L1441 1312 Q1441 1224 1172 881 Q1172 862 1153 827 Q1325 631 1352 396 L1352 378 Q1308 -107 1118 -107 L1082 -107 Q849 6 849 37 L849 73 L885 73 Q1018 -18 1137 -18 Q1262 152 1262 288 L1262 432 Q1262 529 1064 809 L1064 899 Q1245 1117 1334 1277 L1334 1295 Q921 1241 867 1204 L759 1222 L759 1277 Q1274 1383 1334 1383 Z" /><glyph glyph-name="uni4E8C" unicode="&#x4e8c;" d="M1279 1114 L1297 1114 Q1333 1107 1333 1077 L1333 1042 Q1333 1013 1260 970 L1244 970 L1244 1024 L848 1024 Q716 1024 704 1077 L704 1095 Q1090 1114 1279 1114 ZM1513 431 L1567 431 Q1593 431 1620 377 Q1620 294 1063 233 Q1063 219 686 161 Q578 198 578 269 Q596 269 596 287 L722 269 L758 269 Q1455 380 1513 431 Z" /><glyph glyph-name="uni4E8E" unicode="&#x4e8e;" d="M1207 1357 L1243 1357 Q1278 1351 1278 1322 L1278 1285 Q1104 1267 1010 1231 Q866 1249 866 1285 Q952 1322 1207 1357 ZM1171 1213 L1189 1213 Q1351 1080 1351 1069 L1351 1051 L1297 1051 L1225 1105 L1225 1087 Q1243 1053 1243 1034 L1225 1034 L1243 997 L1243 890 Q1530 949 1530 979 Q1477 979 1477 1016 L1477 1034 L1603 1016 L1729 1016 L1747 944 Q1435 818 1278 818 L1243 764 L1243 477 Q1243 459 1225 459 L1243 423 L1243 279 Q1243 262 1225 262 L1243 225 Q1213 -81 1153 -81 L1063 -81 Q1044 -80 919 81 L919 135 L955 135 Q1061 27 1081 27 L1118 27 Q1134 207 1134 297 L1134 691 L1153 782 L578 638 L488 638 Q452 638 452 674 Q470 709 470 728 L525 728 L506 691 L525 691 Q1084 853 1153 890 Q1153 950 1134 1195 L1171 1213 ZM1369 1069 L1387 1069 Q1422 1064 1422 1034 L1422 1016 L1405 1016 Q1369 1016 1369 1051 L1369 1069 Z" /><glyph glyph-name="uni4E91" unicode="&#x4e91;" d="M831 1294 Q1017 1258 1155 1258 Q1217 1258 1460 1294 L1460 1276 L1496 1294 Q1526 1276 1568 1276 L1568 1221 Q1211 1185 1137 1185 Q831 1198 831 1258 L831 1294 ZM1675 916 L1693 880 L1693 844 Q1208 777 1208 719 Q1069 423 975 269 Q884 150 884 108 L938 108 Q1033 108 1549 287 L1568 287 L1478 449 L1478 484 Q1483 521 1513 521 Q1675 404 1783 0 L1783 -18 L1711 -18 L1568 216 Q1151 18 938 18 Q806 18 796 72 L796 161 Q1119 671 1119 737 L1100 737 Q745 646 561 646 Q545 646 418 665 L418 719 Q463 719 561 737 L561 719 Q747 737 1190 844 L1226 880 Q1246 880 1280 862 Q1615 916 1675 916 Z" /><glyph glyph-name="uni4E9B" unicode="&#x4e9b;" d="M1351 1426 L1369 1389 L1404 1408 L1423 1408 L1547 1068 Q1547 995 1243 870 L1243 799 Q1262 678 1297 673 Q1518 673 1816 763 L1834 726 Q1671 584 1297 584 L1279 584 Q1136 584 1136 781 L1136 799 L1153 978 Q706 810 706 638 L706 565 L615 548 L615 709 Q615 749 599 781 L615 817 Q615 834 599 834 L615 925 Q615 960 599 960 L615 1049 L615 1336 L670 1336 Q670 1305 706 1247 L688 1210 Q706 1088 723 1049 L706 942 L706 834 L723 834 Q994 1002 1153 1068 Q1212 1426 1351 1426 ZM1351 1318 Q1260 1088 1260 925 Q1392 990 1476 1068 L1386 1264 L1386 1282 Q1404 1282 1404 1300 Q1385 1300 1351 1318 ZM473 1103 Q508 1086 527 1086 L527 1068 Q473 999 473 907 L473 656 Q504 441 545 441 Q769 620 849 620 L849 602 Q741 534 741 512 Q572 351 527 351 Q445 351 365 638 Q383 836 383 995 Q440 1103 473 1103 ZM957 726 L992 726 L992 709 Q992 691 867 620 L849 620 L849 638 Q849 660 957 726 ZM1476 297 L1494 262 L1494 225 Q1494 184 1369 171 L1386 207 L1369 207 L759 118 L741 154 Q741 250 1351 279 Q1351 297 1476 297 ZM1118 46 L1118 10 L1028 -7 L1028 -43 L1064 -25 L1439 -25 L1494 10 Q1522 10 1565 -61 Q1565 -92 1476 -115 Q1458 -115 1458 -98 L1369 -115 L1333 -115 Q1279 -115 1279 -98 L975 -133 L939 -115 L849 -133 L778 -115 Q712 -151 615 -151 L491 -115 L491 -25 Q515 -25 670 -80 L1118 46 Z" /><glyph glyph-name="uni4EC0" unicode="&#x4ec0;" d="M1541 1320 Q1541 1284 1631 1284 L1631 1230 L1596 1230 Q1685 1092 1685 1068 L1721 1086 Q1955 997 1955 978 L1955 943 Q1955 910 1578 781 L1560 744 L1560 673 Q1560 628 1596 98 L1596 80 L1578 -46 L1560 -46 Q1503 -46 1452 708 L1452 726 L1434 726 L751 440 L751 475 Q812 557 1434 817 Q1457 817 1487 1158 Q1470 1190 1470 1230 L1470 1302 Q1479 1302 1541 1320 ZM571 1176 L642 1176 Q679 1170 679 1140 L679 1049 Q564 833 410 655 Q502 708 589 708 Q679 708 715 619 L715 403 Q715 363 733 332 Q715 300 715 260 L715 170 L642 170 L642 565 Q592 655 536 655 Q524 655 266 547 L248 584 L248 619 L500 925 Q589 1074 589 1122 Q571 1157 571 1176 ZM1560 1140 L1560 852 L1578 852 Q1690 925 1811 943 L1811 978 Q1735 978 1596 1068 L1614 1104 L1560 1140 Z" /><glyph glyph-name="uni4ECB" unicode="&#x4ecb;" d="M876 1483 L894 1483 Q1046 1483 1163 1428 L1163 1410 Q1163 1301 1073 1178 L1055 1178 L1055 1141 Q1524 1116 2043 818 L2043 728 Q1810 741 1810 800 L1881 800 L1881 818 Q1346 1051 1126 1051 Q1126 1069 983 1069 Q446 565 175 565 L157 602 L157 638 Q363 638 858 1087 L821 1069 L732 1087 L732 1105 Q959 1105 1038 1320 Q1055 1320 1073 1375 Q894 1422 876 1483 ZM929 943 L1002 943 Q1038 938 1038 907 L983 907 Q1038 835 1055 620 L1038 584 Q1038 565 1055 565 Q1028 100 947 100 L929 100 Q894 100 894 153 Q965 557 965 584 Q947 769 894 925 L929 943 ZM1343 925 L1361 925 Q1486 925 1486 260 L1558 -170 L1504 -207 L1486 -207 Q1396 -207 1396 279 Q1379 279 1361 441 L1379 441 L1361 476 Q1361 506 1379 691 Q1357 853 1325 853 Q1309 853 1181 835 L1181 853 Q1205 925 1343 925 Z" /><glyph glyph-name="uni4EE3" unicode="&#x4ee3;" d="M1684 1445 Q1892 1337 1917 1337 L1917 1302 Q1917 1266 1881 1266 Q1630 1343 1630 1391 L1630 1409 Q1630 1445 1684 1445 ZM1379 1427 L1432 1427 Q1468 1422 1468 1391 Q1468 1356 1396 1356 Q1396 1103 1432 907 Q1414 907 1414 888 L1450 872 Q1711 961 1755 961 L1755 997 Q1583 997 1486 1248 L1504 1248 Q1606 1122 1630 1122 Q1899 1001 1899 979 Q1869 910 1450 781 L1450 746 Q1450 545 1809 -61 Q1828 -61 1863 -80 Q1895 -48 1935 297 L1970 315 Q1970 244 2005 81 Q1958 -169 1899 -169 L1881 -169 Q1693 -169 1576 153 Q1360 551 1360 709 L1360 746 L1342 746 Q976 602 858 602 L858 638 Q861 663 1342 817 Q1325 1164 1307 1284 Q1336 1427 1379 1427 ZM1450 1356 Q1486 1349 1486 1319 L1486 1302 L1450 1302 L1450 1356 ZM661 1122 L697 1122 Q840 1109 840 979 L840 961 Q840 862 625 620 Q593 567 553 567 L553 530 Q716 530 716 118 L697 10 L697 -80 L607 -80 L607 136 Q607 494 517 494 L499 494 Q499 475 230 244 L194 244 L194 315 Q314 379 661 835 Q661 867 751 979 Q746 1009 661 1122 Z" /><glyph glyph-name="uni4EE5" unicode="&#x4ee5;" d="M1315 1221 L1352 1221 Q1441 1045 1441 809 Q1348 181 1154 181 Q1082 207 1082 234 L1082 270 L1100 270 Q1135 252 1154 252 Q1238 252 1333 809 Q1333 1059 1279 1059 Q1261 1029 1261 988 L1243 988 L1243 1006 Q1267 1221 1315 1221 ZM400 1041 L454 1041 Q437 947 437 934 L454 827 Q437 673 437 593 Q437 533 472 306 Q650 425 777 844 L849 844 Q849 715 1100 646 Q1154 747 1154 790 L1189 790 Q1180 593 1154 593 L1064 557 Q813 644 813 718 L795 718 Q612 222 490 199 Q393 199 346 486 Q382 735 400 1041 ZM1172 862 L1189 862 Q1226 856 1226 827 L1189 809 Q1189 827 1172 862 ZM1548 342 Q1852 268 1852 126 L1836 55 L1764 55 Q1764 133 1548 288 L1548 342 Z" /><glyph glyph-name="uni4EEC" unicode="&#x4eec;" d="M794 1418 L848 1418 Q901 1400 901 1311 L901 1203 Q877 1076 614 755 Q722 639 722 360 Q722 96 596 20 Q526 46 526 73 Q632 171 632 469 Q596 683 561 683 L543 683 Q332 486 309 486 L291 486 Q256 486 256 522 Q722 1020 722 1095 Q811 1170 813 1239 L813 1347 Q813 1383 758 1383 Q764 1418 794 1418 ZM1762 1239 L1817 1239 Q1903 1239 1925 414 Q1943 414 1943 217 L1925 181 Q1943 149 1943 109 Q1906 -142 1852 -142 L1834 -142 Q1718 -142 1441 91 L1422 91 L1422 127 L1441 127 L1799 -35 Q1834 56 1834 288 L1834 360 L1781 1149 L1762 1149 Q1321 1029 1315 953 L1315 898 Q1298 898 1136 934 Q1052 934 884 880 L884 898 Q955 1024 1136 1024 L1297 988 Q1297 1114 1762 1239 ZM1063 719 Q1099 713 1099 683 L1099 504 Q1099 486 1081 486 Q1081 469 1099 469 L1063 127 L1010 127 L974 146 Q1004 719 1063 719 Z" /><glyph glyph-name="uni4EFD" unicode="&#x4efd;" d="M1000 1427 Q1202 1427 1646 1230 Q1810 1120 1862 1032 L1862 978 Q1824 919 1575 870 L1575 853 Q1771 853 1771 584 Q1615 -151 1396 -151 L1378 -151 Q1215 -80 1215 64 L1215 118 L1234 118 Q1369 -61 1396 -61 Q1555 45 1683 584 L1683 709 Q1543 781 1502 781 L1466 781 Q1341 781 1341 584 Q1197 356 1197 297 Q1176 297 1000 64 Q914 -7 857 -7 L822 46 L822 101 L839 101 Q874 83 892 83 Q1236 515 1288 763 L1270 763 Q995 703 768 548 Q705 530 696 530 Q624 540 624 584 L589 584 Q624 411 624 388 Q624 346 606 315 Q624 283 624 244 L624 225 Q624 200 571 171 L552 171 Q517 171 517 207 L517 315 Q517 356 535 388 L499 567 L517 602 Q499 632 499 691 L481 691 Q481 616 355 602 Q337 637 337 656 Q337 694 589 870 Q694 1019 731 1086 L731 1230 Q731 1266 678 1266 L678 1301 Q728 1301 822 1230 L822 1140 Q822 942 552 709 Q571 674 571 656 L606 674 Q642 674 642 620 L713 620 Q827 665 983 1032 Q1012 1032 1109 1319 L1126 1319 Q1162 1313 1162 1283 L1162 1266 Q1138 1052 965 763 L965 746 Q1213 870 1484 870 Q1516 853 1557 853 Q1557 953 1753 996 Q1555 1213 1109 1336 Q983 1336 983 1372 L983 1391 L1000 1427 Z" /><glyph glyph-name="uni4EFF" unicode="&#x4eff;" d="M544 1400 Q757 1302 831 1203 L831 1114 Q773 1002 598 844 Q731 844 759 378 Q748 74 687 74 Q662 74 633 127 Q646 396 669 396 L651 432 L651 450 Q651 469 669 469 L598 790 L526 790 Q284 593 203 593 L185 593 L185 648 Q237 648 508 916 Q554 916 723 1149 L723 1185 Q699 1185 544 1347 L544 1400 ZM1279 1400 Q1554 1400 1780 1238 L1780 1221 Q1780 1155 1387 1114 L1387 1130 Q1387 1170 1547 1203 L1601 1203 L1601 1238 Q1399 1311 1332 1311 L1279 1311 L1224 1274 Q1189 1274 1189 1311 L1189 1329 Q1189 1354 1279 1400 ZM1350 1114 L1350 1077 L1243 1060 L1243 1095 Q1337 1114 1350 1114 ZM1780 1114 L1816 1114 L1816 1077 L2013 1077 L2013 1006 L1996 1006 Q1976 1006 1942 1024 Q1727 1012 1727 862 Q1704 862 1637 755 Q1834 714 1834 540 Q1834 233 1493 -88 Q1477 -88 1350 -123 Q1261 -83 1261 56 Q1338 414 1387 414 Q1387 352 1350 109 L1368 74 L1350 -34 Q1521 -34 1710 396 Q1745 510 1745 540 Q1745 655 1584 683 L1566 683 Q1123 270 938 270 L938 306 Q974 469 1027 469 L1045 469 Q1045 419 1010 361 L1027 361 Q1355 594 1673 934 L1673 970 Q1189 898 1082 898 L1027 898 Q934 898 919 951 Q919 1000 1153 1060 L1153 1006 L1027 988 L1027 970 L1153 970 L1780 1077 L1780 1114 Z" /><glyph glyph-name="uni4F1A" unicode="&#x4f1a;" d="M930 1490 L1037 1490 Q1063 1490 1090 1435 L1090 1382 L1072 1293 Q1326 1293 1843 683 Q1924 651 1987 557 L1987 540 Q1987 513 1933 486 Q1835 504 1450 951 Q1174 1238 1054 1238 Q1054 1216 786 790 L767 790 L786 754 Q945 790 1216 790 L1306 790 L1395 809 L1414 772 L1414 754 Q1414 707 1109 683 Q1090 683 1090 701 L1001 683 L822 683 L767 718 L767 665 L750 665 L696 701 Q456 378 266 378 Q241 378 212 431 L212 467 L248 467 Q266 467 266 449 Q456 449 983 1293 L1019 1417 Q931 1464 930 1490 ZM1556 593 L1574 557 L1574 522 Q1574 489 1270 378 Q891 49 858 -34 L893 -52 L1485 74 L1377 217 L1377 235 Q1377 280 1450 288 Q1486 288 1593 127 Q1646 127 1646 91 L1646 74 Q1646 56 1628 56 Q1700 -100 1700 -178 L1646 -213 L1628 -213 Q1613 -213 1520 2 Q1019 -124 875 -124 L822 -124 Q796 -124 767 -70 L767 -52 Q788 119 1198 378 L1198 414 Q1065 343 678 270 L499 270 Q464 270 464 306 Q464 348 965 396 Q1421 593 1556 593 Z" /><glyph glyph-name="uni4F20" unicode="&#x4f20;" d="M1396 1470 Q1450 1454 1450 1363 L1433 1202 L1468 1184 Q1509 1184 1539 1202 Q1574 1184 1594 1184 L1594 1167 Q1594 1070 1396 970 Q1396 950 1378 915 L1396 915 Q1586 915 1665 1006 L1683 1006 Q1683 938 1826 897 L1826 862 Q1826 826 1773 826 L1701 844 Q1683 844 1683 826 L1594 844 L1557 844 L1468 826 L1450 862 L1342 844 L1342 772 Q1396 772 1396 736 L1252 467 L1271 467 Q1405 502 1521 502 L1557 502 Q1808 502 1808 323 Q1808 177 1594 20 Q1468 -30 1468 -53 Q1521 -53 1557 -124 L1557 -196 L1450 -196 Q1336 -17 1199 -17 L1199 91 L1289 109 L1396 20 Q1701 170 1701 342 Q1701 374 1576 431 Q1319 396 1146 342 L1092 342 L1092 414 Q1272 683 1289 683 L1271 718 L1289 807 Q1088 754 1037 754 L1020 789 L984 772 L948 772 Q859 772 787 862 Q793 897 823 897 Q899 844 966 844 Q1147 872 1199 915 L1234 897 L1271 897 Q1325 897 1325 1112 L1307 1112 Q1262 1094 1110 1094 Q1136 1184 1289 1184 L1342 1184 Q1357 1381 1378 1381 L1360 1417 L1360 1435 Q1366 1470 1396 1470 ZM859 1238 Q859 1180 929 1076 L894 1059 L859 1076 Q810 908 589 701 L589 683 Q768 683 768 323 Q768 236 697 -106 L661 -106 Q626 -106 626 -71 Q626 -7 679 270 Q668 610 572 610 L482 610 L428 575 L410 575 Q374 575 374 610 Q823 1072 823 1220 L859 1238 ZM1415 1112 L1396 1041 L1433 1041 Q1433 1094 1503 1094 L1503 1112 L1468 1112 L1468 1094 L1433 1112 L1415 1112 Z" /><glyph glyph-name="uni4F46" unicode="&#x4f46;" d="M759 1311 Q777 1216 777 1203 Q777 1040 328 665 L293 665 L293 701 Q557 1001 706 1203 Q687 1226 687 1293 Q719 1311 759 1311 ZM956 1274 Q992 1274 1029 915 L1046 915 Q1046 1132 1495 1132 L1602 1150 Q1745 1135 1745 1006 L1745 915 Q1745 790 1709 790 Q1709 772 1727 772 Q1691 594 1584 306 L1495 306 L1404 378 Q1178 270 1082 270 Q1036 270 938 754 Q938 855 920 951 L938 951 L920 988 L920 1238 Q926 1274 956 1274 ZM1082 719 L1099 683 Q1082 651 1082 611 L1046 628 L1046 611 Q1099 593 1099 575 Q1099 558 1082 558 Q1099 486 1099 432 L1117 432 Q1180 471 1387 754 L1351 772 Q1286 719 1208 719 L1208 701 L1225 665 L1153 665 Q1117 665 1117 719 Q1117 784 1351 845 L1422 845 Q1447 845 1476 790 L1476 772 Q1476 662 1261 486 Q1261 459 1135 342 L1153 342 Q1369 432 1369 467 L1404 449 L1511 449 L1511 432 Q1495 397 1495 378 Q1584 378 1655 970 Q1674 970 1674 988 Q1662 1059 1584 1077 Q1549 1059 1530 1059 L1530 1077 Q1099 1020 1099 898 Q1099 781 1082 719 ZM472 646 L543 646 L562 558 Q562 540 543 540 L562 432 Q513 -35 472 -35 L454 -35 Q419 -35 419 2 Q472 395 472 646 ZM1511 144 L1511 127 L1548 144 L1871 144 Q1907 139 1907 109 Q1907 73 1763 55 Q1745 55 1745 73 Q1479 55 1279 20 L1243 37 Q1124 -17 1082 -17 L992 -17 Q956 -17 956 20 L956 37 Q1277 144 1511 144 Z" /><glyph glyph-name="uni4F4D" unicode="&#x4f4d;" d="M903 1427 L921 1391 L921 1372 Q921 1173 561 853 Q561 806 455 763 Q455 751 364 691 L329 691 Q329 781 437 853 Q709 1086 848 1354 L848 1409 Q883 1427 903 1427 ZM1315 1319 Q1476 1197 1476 1175 L1476 1104 Q1457 1104 1423 1086 Q1279 1259 1279 1301 L1315 1319 ZM1602 996 L1620 961 L1620 943 Q1148 835 1047 763 L992 763 L992 817 Q1247 943 1602 996 ZM598 781 L634 781 Q687 781 723 567 Q723 256 687 -43 Q705 -78 705 -98 L634 -151 L598 -151 L598 -134 Q604 189 634 189 Q634 207 616 207 L634 279 Q634 315 616 315 L634 441 L634 638 Q634 655 598 781 ZM1135 709 Q1171 703 1171 674 L1153 548 Q1203 333 1279 333 L1297 333 Q1270 262 1244 262 Q1119 262 1065 548 L1065 602 L1082 602 L1065 638 Q1065 666 1135 709 ZM1691 638 L1710 638 L1710 602 Q1710 377 1370 154 L1387 154 Q1443 154 1620 207 Q1871 160 1871 100 L1871 10 L1817 10 Q1768 86 1638 100 Q1402 64 1351 46 Q1333 46 1333 64 Q1198 28 1082 28 Q1047 28 1047 64 L1047 118 Q1408 212 1620 567 Q1620 607 1691 638 Z" /><glyph glyph-name="uni4F5C" unicode="&#x4f5c;" d="M1289 1516 L1289 1498 Q1289 1429 1038 1104 Q962 978 930 978 L930 960 Q966 960 966 943 Q1002 943 1234 1014 L1218 1051 L1218 1069 Q1257 1069 1289 1086 L1289 1014 Q1567 1104 1612 1104 L1612 1051 Q1429 968 1271 925 L1289 890 L1289 728 Q1289 688 1271 655 L1289 620 Q1271 588 1271 548 L1271 530 L1289 530 Q1474 597 1702 853 Q1738 853 1738 799 Q1738 723 1486 530 Q1273 447 1271 404 L1271 386 Q1584 345 1844 81 L1844 63 Q1826 10 1738 10 Q1738 129 1253 298 L1253 280 Q1253 262 1271 262 L1253 81 L1253 -151 L1234 -240 L1146 -240 Q1146 -176 1163 -80 L1146 81 L1146 333 Q1110 333 1110 368 L1110 404 Q1181 465 1181 567 L1181 907 Q1051 872 913 872 Q841 898 841 925 L841 960 Q841 1047 1234 1516 L1289 1516 ZM571 1140 L625 1140 Q625 1109 679 1051 L679 907 Q679 817 554 620 L536 620 L536 602 Q576 602 608 585 Q608 602 625 602 Q715 524 715 333 Q715 -43 643 -43 Q609 -25 590 -25 L590 46 Q625 309 625 333 Q625 567 554 567 Q429 506 429 459 L356 459 L356 548 Q437 548 571 890 Q625 1017 625 1032 L571 1122 L571 1140 Z" /><glyph glyph-name="uni4F60" unicode="&#x4f60;" d="M1244 1543 L1280 1472 Q1166 1156 1046 1005 L1046 970 Q1599 1220 1853 1220 L1890 1167 Q1763 909 1673 898 Q1673 862 1459 646 Q1428 593 1386 593 Q1368 138 1368 -71 L1368 -124 Q1368 -256 1315 -268 Q1221 -232 1154 -124 Q1113 -124 1100 90 L1136 108 Q1189 -41 1280 -142 L1280 -124 Q1280 -106 1262 -71 Q1298 190 1298 234 Q1280 390 1280 502 L1189 449 Q1118 476 1118 502 L1118 521 Q1217 521 1280 593 Q1244 815 1207 880 Q1225 914 1225 933 L1189 933 Q1140 888 975 880 Q902 933 902 970 L1172 1435 L1136 1435 L1136 1472 Q1172 1543 1244 1543 ZM1262 970 L1262 933 Q1333 933 1368 682 L1405 682 Q1405 708 1673 1023 Q1677 1039 1781 1149 Q1632 1112 1262 970 ZM597 1149 L597 1023 Q597 933 562 933 L581 898 L581 862 Q527 862 490 700 L455 718 L472 682 L472 665 Q401 665 401 611 L418 611 L455 628 Q601 628 616 360 L597 360 L616 325 L616 144 L634 -71 L597 -89 L581 -89 Q544 -89 544 -35 Q520 575 437 575 Q418 540 418 521 L329 521 Q268 449 221 449 Q203 484 203 502 Q472 887 472 986 Q504 986 526 1149 L597 1149 ZM365 611 L365 557 L383 557 L383 611 L365 611 ZM957 521 L1010 521 L1010 413 Q970 199 957 199 L975 162 L975 55 L1028 55 L1028 20 Q1028 -7 975 -35 L902 -35 Q867 118 867 162 Q867 340 957 521 ZM1691 486 Q1996 372 1996 199 L1996 90 L1907 73 Q1876 292 1728 378 Q1683 413 1638 413 L1638 449 Q1638 486 1691 486 Z" /><glyph glyph-name="uni4F7F" unicode="&#x4f7f;" d="M1434 1596 Q1471 1578 1489 1578 L1479 1489 Q1503 1328 1528 1328 Q1606 1328 1685 1363 Q1722 1346 1741 1346 L1746 1293 Q1563 1220 1536 1220 Q1534 1009 1542 916 Q1544 890 1619 862 L1616 898 Q1571 1014 1567 1059 L1585 1059 Q1610 1037 1687 898 Q1861 737 1864 701 Q1871 607 1507 469 Q1519 317 1482 109 Q1643 -13 1923 -267 L1925 -284 Q1928 -320 1893 -320 Q1791 -320 1494 -34 Q1476 -34 1473 2 L1438 2 Q1451 -157 1224 -249 Q986 -194 974 -52 L1029 -52 Q1034 -118 1181 -159 Q1304 -159 1341 74 L1338 109 Q1281 109 1020 288 L1019 306 L1072 306 Q1133 306 1386 182 Q1411 343 1405 414 L1386 414 Q1330 373 1141 343 Q1059 469 997 790 Q1044 790 1057 951 Q1084 951 1125 988 L1126 970 L1117 862 L1119 844 Q1290 862 1436 898 L1422 1077 Q1421 1094 1439 1094 L1418 1130 Q1433 1166 1431 1185 L1413 1185 Q1367 1170 1202 1149 L1201 1167 Q1182 1167 1183 1149 Q1020 1170 1016 1220 L1015 1238 Q1147 1238 1424 1274 L1392 1454 L1385 1543 Q1383 1568 1434 1596 ZM593 1363 L629 1363 L632 1328 L596 1328 L593 1363 ZM632 1328 L685 1328 Q834 1266 842 1167 L846 1112 Q852 1040 711 790 Q453 432 345 432 L344 450 Q749 985 733 1185 Q638 1245 632 1328 ZM1109 737 Q1156 450 1221 450 Q1427 581 1426 593 L1410 790 Q1324 790 1109 737 ZM1535 790 Q1524 696 1525 683 L1560 683 Q1558 711 1592 755 L1589 790 L1535 790 ZM1679 772 Q1685 701 1636 648 L1638 630 Q1721 683 1758 683 L1757 701 Q1755 729 1679 772 ZM615 648 Q690 648 739 432 L721 432 L742 396 L750 306 Q780 -69 726 -69 Q690 -52 671 -52 Q669 -29 674 127 Q672 146 655 146 L665 235 L661 288 Q655 363 628 487 L642 522 L599 630 Q617 630 615 648 Z" /><glyph glyph-name="uni4F8B" unicode="&#x4f8b;" d="M1736 1408 L1789 1408 Q1932 1150 1932 602 Q1932 584 1915 584 Q1932 404 1932 315 L1932 171 Q1932 -133 1789 -133 Q1742 -86 1556 10 Q1556 83 1502 83 L1502 118 Q1521 118 1521 100 L1556 118 Q1690 64 1736 28 Q1736 -8 1807 -8 L1824 28 Q1824 141 1842 297 Q1824 504 1824 691 Q1824 711 1807 744 L1824 781 L1807 816 L1824 888 L1789 1049 L1807 1049 L1736 1371 L1736 1408 ZM1108 1300 L1199 1300 L1199 1245 L912 1192 L912 1175 Q983 1175 983 1139 L983 1049 L894 888 L894 870 Q1046 991 1252 1013 Q1360 1013 1360 907 Q1360 881 1126 476 Q1126 440 1018 404 Q907 219 678 171 L661 207 L661 225 Q747 225 965 458 L965 494 Q831 565 786 565 L786 602 Q792 638 822 638 L839 638 Q907 638 1055 565 Q1252 821 1252 924 L1252 942 Q1086 942 786 726 L750 726 L732 763 L732 816 Q894 1030 894 1139 L839 1175 L750 1175 L750 1228 Q957 1300 1108 1300 ZM571 1175 L625 1175 Q661 1169 661 1139 L661 1121 Q661 919 499 726 L481 726 L481 673 Q536 673 536 494 L536 386 Q536 293 517 83 Q490 83 446 46 L428 46 Q393 46 393 83 Q446 310 446 423 L446 655 L338 584 L285 584 L267 655 Q571 870 571 1157 L571 1175 ZM1449 888 Q1592 888 1592 620 Q1574 585 1574 565 L1521 565 Q1485 565 1467 799 L1378 816 L1378 834 Q1378 861 1449 888 Z" /><glyph glyph-name="uni4FE1" unicode="&#x4fe1;" d="M1251 1425 Q1476 1425 1628 1336 L1628 1300 Q1628 1264 1593 1264 Q1551 1305 1359 1318 Q1216 1368 1216 1389 Q1222 1425 1251 1425 ZM625 1174 L643 1174 Q777 1152 787 1103 L787 1013 Q787 863 374 584 L339 584 L339 637 Q697 953 697 1086 Q669 1086 625 1156 L625 1174 ZM1430 1103 Q1502 1086 1556 1086 L1556 1049 Q1556 1013 1520 1013 Q1502 1013 1502 1031 L1127 942 L948 942 L948 995 L1001 995 Q1025 995 1430 1103 ZM1556 887 L1556 834 Q1368 834 1127 709 L1055 709 Q1019 709 1019 744 Q1019 784 1412 887 L1556 887 ZM1574 673 L1593 637 L1593 620 Q1541 620 1090 459 Q1055 459 1055 494 Q1055 578 1574 673 ZM500 637 Q661 637 661 -60 L661 -133 L571 -133 Q571 -96 554 -96 L571 29 L571 101 L554 208 Q571 242 571 262 Q571 345 500 637 ZM1180 459 L1198 459 L1180 280 L1180 244 L1198 244 Q1510 423 1699 423 Q1860 386 1860 298 Q1860 234 1646 64 Q1681 60 1681 29 L1681 -7 L1593 -7 Q1498 -7 1430 -60 L1394 -60 Q1359 -60 1359 -25 L1359 29 Q1576 102 1735 298 L1735 316 L1628 316 L1198 172 Q1198 106 1306 -96 L1306 -150 L1251 -150 Q1180 -150 1090 262 Q1113 459 1180 459 Z" /><glyph glyph-name="uni505A" unicode="&#x505a;" d="M706 1398 L742 1398 Q777 1392 777 1362 Q777 1130 527 879 Q498 842 455 842 L455 826 Q599 668 599 181 Q563 83 563 20 L473 20 L473 217 L509 270 Q492 637 437 753 Q373 753 294 683 L258 683 Q223 683 223 718 Q706 1140 706 1398 ZM1046 1345 L1135 1345 Q1135 1316 1172 1272 L1172 1254 L1135 1254 L1135 1290 L1100 1290 L1064 1003 Q1082 1003 1082 986 Q1064 986 1064 968 Q1242 1064 1261 1111 L1207 1201 Q1213 1237 1243 1237 Q1333 1144 1333 1076 Q1319 1013 1046 879 L1046 807 Q1046 639 974 557 L974 539 Q1045 575 1172 575 Q1288 575 1351 484 Q1478 484 1654 325 Q1905 742 1905 826 L1888 826 Q1808 826 1475 665 L1457 665 Q1386 691 1386 718 Q1386 886 1673 1326 L1690 1326 L1708 1290 Q1654 1132 1512 861 L1494 753 L1726 861 L1852 897 L1923 897 Q1948 897 1976 842 L1976 789 Q1976 619 1708 270 Q1708 234 1976 -17 L1976 -52 Q1976 -87 1941 -87 Q1853 -87 1726 73 Q1716 73 1636 146 Q1399 -70 1351 -70 L1225 -123 Q1118 -123 1118 73 L1028 2 Q993 2 993 38 L993 56 Q993 139 1172 396 Q1172 431 1225 431 Q1225 467 1189 467 Q1098 467 867 414 Q974 83 974 -35 L938 -52 L885 -52 Q846 -52 795 306 Q753 360 669 360 L669 414 L777 575 Q861 521 885 521 Q949 521 974 735 L974 842 L563 700 L563 735 Q599 735 599 771 L616 771 L653 753 Q653 815 974 933 Q1011 1205 1046 1345 ZM1314 396 Q1314 328 1207 146 Q1207 91 1189 20 Q1207 -14 1207 -35 Q1318 -35 1565 217 Q1474 378 1386 378 L1386 396 L1314 396 Z" /><glyph glyph-name="uni50A8" unicode="&#x50a8;" d="M1503 1389 L1556 1389 L1556 1317 L1575 1317 L1575 1299 L1538 1245 L1556 1245 Q1623 1245 1664 1389 L1754 1389 Q1754 1352 1575 924 L1592 924 Q1836 995 1878 995 L1878 959 Q1878 910 1503 798 Q1503 784 1431 620 L1503 476 Q1733 494 1772 512 Q1754 574 1754 690 Q1614 646 1575 620 L1503 620 L1503 637 Q1503 708 1754 763 Q1878 763 1878 46 L1878 -80 L1825 -115 L1789 -115 Q1699 -36 1699 28 Q1439 -25 1377 -25 L1359 10 L1359 64 Q1359 101 1449 101 L1395 547 Q1204 321 1055 207 Q1055 101 948 101 Q911 136 895 315 Q930 506 930 655 L911 655 Q697 642 697 565 L697 440 Q697 355 715 262 L679 -7 L644 -7 L590 28 L608 118 Q608 738 536 798 L536 816 Q542 852 571 852 L608 852 Q679 703 679 673 Q748 734 1037 780 L1037 763 Q1235 852 1449 887 L1449 924 Q1414 924 1414 941 Q1449 1000 1449 1048 L1449 1103 Q1346 1103 1253 1031 Q1216 1031 1216 1066 L1216 1084 Q1216 1121 1449 1191 Q1449 1389 1503 1389 ZM661 1371 L679 1371 Q715 1365 715 1335 Q715 1232 536 887 Q536 845 394 690 Q375 690 375 655 L321 655 L321 673 Q321 726 536 1103 Q614 1336 661 1371 ZM858 1103 Q1091 1094 1091 1031 L1091 1013 Q1072 1013 1037 995 Q1008 995 805 1048 L805 1066 Q805 1103 858 1103 ZM1002 655 Q1002 574 984 262 Q1002 262 1109 494 L1145 512 L1163 512 L1163 458 L1127 404 L1145 404 Q1377 729 1377 780 Q1013 668 1002 655 ZM1521 386 L1521 368 L1538 333 Q1538 315 1521 315 L1538 225 L1538 171 L1592 171 L1556 118 L1556 101 Q1714 154 1772 154 L1772 297 Q1772 390 1717 404 Q1595 386 1521 386 Z" /><glyph glyph-name="uni5148" unicode="&#x5148;" d="M1145 1507 Q1181 1388 1289 1310 Q1358 1255 1378 1255 Q1437 1291 1486 1291 L1504 1291 Q1504 1132 1307 1076 Q1284 1076 1163 1023 L1163 986 Q1163 968 1181 968 Q1143 682 1055 682 L1055 646 L1073 646 Q1232 663 1270 663 Q1289 630 1289 610 Q1289 527 1145 395 Q1217 270 1217 216 L1217 198 Q1217 115 1181 -89 Q1247 -119 1431 -142 Q1487 -142 1700 -53 L1700 -35 Q1700 60 1683 270 L1718 270 Q1773 270 1808 18 Q1808 -161 1486 -232 L1450 -215 Q1430 -215 1396 -232 Q1073 -215 1073 -89 Q1110 35 1110 126 L1110 288 Q1110 323 1073 323 Q884 135 518 -53 Q482 -53 482 -89 L392 -89 L392 -17 Q500 -17 930 323 L894 305 L876 305 L876 323 Q876 362 1073 431 L1181 575 L1181 592 Q726 521 661 431 L626 431 Q532 431 518 484 Q581 547 1002 663 Q1002 646 1020 646 Q1020 699 1091 879 Q1073 907 1073 986 Q607 771 446 771 L410 826 Q506 1017 589 1417 L607 1417 L644 1345 Q607 1076 589 1076 Q553 1076 553 862 Q738 950 1073 1058 L1073 1489 Q1083 1489 1145 1507 ZM1145 1345 L1163 1255 L1163 1112 L1181 1112 Q1229 1152 1360 1184 L1360 1202 Q1308 1202 1163 1345 L1145 1345 Z" /><glyph glyph-name="uni5165" unicode="&#x5165;" d="M597 1150 Q927 1150 1279 845 L1890 198 Q1872 167 1872 126 L1801 126 Q1661 223 1351 630 Q906 1060 668 1060 Q506 1082 506 1115 L506 1133 L597 1150 ZM812 934 L884 934 L975 916 L975 880 Q975 636 561 360 Q464 342 400 342 L363 342 Q338 342 309 396 L327 432 L400 396 Q619 436 902 845 Q902 898 812 898 L812 934 Z" /><glyph glyph-name="uni5174" unicode="&#x5174;" d="M1509 1363 Q1584 1346 1597 1255 L1616 1130 Q1569 1130 1576 1041 Q1491 899 1229 718 L1269 701 Q1524 736 1549 736 L1603 736 L1609 701 Q1612 677 1371 611 Q1316 546 1230 361 Q908 -52 702 -52 L683 -52 L669 38 Q874 38 1263 611 Q908 558 639 486 L599 504 Q571 486 531 486 L525 522 Q518 569 1076 665 Q1150 665 1216 683 L1214 701 L1161 701 L1158 718 Q1159 740 1465 1059 Q1513 1212 1506 1255 Q1484 1290 1481 1310 Q1490 1363 1509 1363 ZM866 1238 L883 1238 Q1043 1218 1201 1023 L1204 1005 L1133 1005 Q875 1175 871 1202 L866 1238 ZM580 1112 L616 1112 Q737 1039 899 772 L867 754 L831 754 Q593 1028 580 1112 ZM1312 414 Q1407 414 1517 235 Q1675 21 1747 21 L1752 -15 Q1756 -43 1691 -87 Q1601 -87 1343 325 Q1270 325 1262 379 Q1257 414 1312 414 Z" /><glyph glyph-name="uni5176" unicode="&#x5176;" d="M1190 1487 L1207 1487 Q1225 1164 1244 1093 L1279 1093 L1350 1147 L1441 1147 L1441 1129 L1244 1005 L1244 396 Q1665 504 1762 504 L1869 504 Q1906 498 1906 467 L1906 431 Q1887 378 1798 378 L1745 378 L1745 413 L1780 413 L1780 431 L1726 431 L1244 306 L1225 181 L1225 73 L1154 55 L1118 109 Q1154 273 1154 288 Q579 127 403 127 L348 127 Q323 127 295 181 Q313 216 313 235 L403 235 L403 199 Q456 199 867 288 Q885 602 885 665 Q885 683 867 718 Q885 749 885 789 L885 915 L849 897 L832 897 Q814 897 814 915 L778 897 L581 897 L581 932 Q587 968 617 968 L760 968 L885 986 L885 1023 Q885 1158 778 1308 Q784 1343 814 1343 L832 1343 Q901 1343 975 1093 L957 1093 Q975 1064 975 1005 Q1154 1005 1154 1201 L1136 1308 L1136 1434 Q1136 1460 1190 1487 ZM975 932 L975 771 Q1086 807 1154 807 L1154 986 L975 932 ZM975 665 L975 486 Q1057 521 1154 521 L1154 682 Q1154 718 1118 718 Q975 707 975 665 ZM939 323 L975 323 Q1154 360 1154 396 L1154 467 L1136 467 Q939 448 939 323 ZM1333 162 Q1655 124 1655 -123 L1655 -159 Q1655 -185 1602 -213 Q1576 -211 1494 20 Q1359 91 1315 91 L1315 127 L1333 162 ZM778 146 L796 146 Q832 146 832 91 Q760 -57 760 -70 Q778 -105 778 -123 L741 -141 L706 -141 Q671 -141 671 -105 Q706 146 778 146 Z" /><glyph glyph-name="uni5185" unicode="&#x5185;" d="M1243 1312 L1279 1312 Q1314 1306 1314 1276 Q1296 1006 1279 988 L1296 988 Q1382 1059 1764 1059 Q1872 1023 1872 916 L1872 862 Q1872 782 1692 252 L1674 252 Q1692 217 1692 198 Q1608 -1 1549 -36 L1477 -36 Q1261 73 1261 216 Q1208 360 1208 377 L1261 377 Q1342 148 1477 54 L1495 54 Q1572 54 1710 628 Q1781 826 1781 953 Q1710 966 1710 988 L1674 971 L1656 971 Q1637 971 1637 988 Q1225 949 1225 790 Q1208 719 1172 665 L1172 646 L1190 646 Q1224 665 1243 665 Q1243 628 1477 593 L1495 557 L1495 502 Q1475 502 1440 486 Q1380 528 1135 575 Q1135 477 973 431 Q939 449 920 449 L920 467 L1064 628 Q1153 832 1153 862 L1153 880 L614 736 Q607 646 561 646 Q596 402 705 143 L705 126 Q705 90 668 90 L650 90 Q573 90 471 628 Q471 657 327 1059 Q453 1059 453 934 Q489 934 506 790 L542 790 Q542 827 561 827 Q614 827 1153 953 L1190 953 Q1190 1112 1279 1239 L1243 1239 L1243 1312 Z" /><glyph glyph-name="uni518C" unicode="&#x518c;" d="M839 1418 Q912 1418 947 1346 Q929 988 929 807 Q947 774 947 754 L983 772 L1144 772 Q1180 772 1180 807 L1180 915 Q1180 955 1162 988 Q1180 1022 1180 1041 Q1180 1238 1018 1238 L1018 1293 L1144 1293 Q1270 1293 1270 790 L1467 790 L1557 807 L1557 933 Q1557 1184 1378 1184 L1341 1184 L1288 1149 L1252 1149 L1252 1184 Q1252 1213 1323 1256 L1378 1256 Q1646 1256 1646 1005 L1628 1005 L1646 970 L1646 807 Q1873 830 1915 844 Q2006 807 2041 807 L2024 718 L1736 736 L1646 718 Q1683 158 1683 108 L1628 72 L1593 72 Q1485 135 1485 162 L1485 198 L1504 198 Q1562 162 1593 162 L1575 198 Q1575 252 1593 252 L1539 628 L1557 665 Q1539 700 1539 718 L1414 700 L1270 700 Q1270 573 1305 55 L1252 55 Q1212 55 1199 269 L1217 269 L1199 305 L1199 431 Q1199 471 1180 502 L1199 539 Q1180 636 1180 700 L1144 700 L1018 683 L1018 700 Q989 683 929 683 L929 -89 Q929 -115 876 -142 Q840 -124 821 -124 Q821 2 786 126 Q803 195 803 269 L839 252 L839 665 Q803 665 803 683 Q624 683 624 592 Q565 181 516 181 L481 181 Q445 181 445 216 L445 287 Q445 323 498 323 Q498 396 534 646 L355 628 Q220 628 158 718 L158 754 L248 754 Q248 721 302 700 L534 736 L534 915 Q534 1086 445 1328 L498 1328 Q642 1139 642 897 L624 862 Q642 830 642 790 L624 754 Q642 754 642 736 Q680 751 839 772 Q857 1216 876 1274 Q857 1306 857 1346 L803 1346 L713 1328 L713 1382 L839 1418 Z" /><glyph glyph-name="uni5206" unicode="&#x5206;" d="M901 1446 L991 1446 Q1183 1446 1836 800 Q1980 657 1980 584 Q1936 548 1907 548 Q1638 597 1638 638 L1638 674 L1656 674 Q1683 674 1817 638 Q1378 1120 991 1393 Q865 1393 865 1428 L901 1446 ZM668 1178 L812 1178 Q901 1134 901 1070 Q628 591 290 441 L254 441 Q219 441 219 477 Q219 518 362 567 Q734 938 794 1070 L794 1087 Q690 1141 668 1141 L668 1178 ZM1135 764 L1314 764 Q1548 764 1548 620 L1548 602 Q1439 123 1135 -170 L1062 -170 Q1037 -170 938 -44 Q938 -20 973 154 L1009 154 L1009 136 Q1009 45 1044 -81 L1099 -81 Q1261 84 1458 638 Q1399 674 1350 674 L1135 674 Q1135 598 1009 368 Q793 -26 632 -26 L613 10 L613 27 Q921 355 1027 656 L1009 656 Q801 567 739 567 L597 567 L597 620 Q597 682 1135 764 Z" /><glyph glyph-name="uni522B" unicode="&#x522b;" d="M633 1472 Q651 1472 706 1400 Q822 1435 867 1435 L956 1435 Q1095 1435 1137 1346 L1137 1256 Q1137 1235 849 880 L849 862 L867 862 L993 934 L1046 934 L1046 862 L1011 844 Q1011 826 1028 790 Q1011 691 1011 646 L1028 646 Q1151 665 1225 665 L1333 665 Q1381 665 1440 630 L1493 970 Q1477 1001 1477 1041 L1512 1041 Q1559 1041 1584 898 L1584 880 Q1556 467 1493 467 Q1418 467 1387 306 Q1202 2 1172 2 Q1109 -106 1011 -106 L993 -106 Q834 -106 795 126 Q659 -53 562 -53 L544 -17 Q544 66 741 234 Q851 472 867 486 L867 521 Q304 306 293 306 L275 343 L275 378 Q287 435 902 630 L956 826 L938 826 Q822 754 759 754 L723 754 Q688 754 688 790 L688 826 L741 898 Q706 898 706 934 L723 970 Q666 1283 615 1364 L633 1472 ZM920 1346 L723 1346 Q723 1294 795 970 Q1046 1228 1046 1328 Q956 1346 956 1364 L920 1346 ZM1763 1328 L1889 1221 Q1907 986 1907 844 L1907 557 Q1907 292 1924 -161 L1871 -196 L1835 -196 Q1808 -193 1674 -17 L1674 55 L1710 55 Q1725 55 1817 -53 Q1817 91 1835 91 L1817 126 L1817 144 Q1817 368 1798 557 L1817 718 Q1798 870 1798 970 L1817 1005 Q1798 1040 1798 1059 L1817 1095 Q1786 1238 1692 1238 Q1692 1185 1656 1185 L1619 1185 L1619 1238 Q1667 1328 1763 1328 ZM849 217 Q885 17 974 -35 L1011 -35 Q1253 175 1387 557 L1351 575 L1297 575 Q956 575 956 467 Q956 442 849 217 Z" /><glyph glyph-name="uni5230" unicode="&#x5230;" d="M1682 1507 L1700 1507 Q1843 1507 1843 1328 L1843 1291 Q1843 1256 1826 1256 L1843 1149 Q1843 708 1861 -15 Q1839 -231 1790 -231 L1753 -231 Q1521 -70 1521 3 Q1521 38 1574 38 Q1669 38 1682 -70 L1753 -105 L1735 -70 L1772 3 Q1772 32 1753 217 Q1753 277 1772 308 L1735 1095 L1753 1130 Q1735 1227 1735 1291 Q1735 1307 1753 1435 Q1726 1435 1682 1507 ZM1055 1310 L1092 1256 Q1092 1100 805 898 Q516 646 482 646 L482 630 L518 630 Q876 751 876 845 L911 862 Q946 862 1037 827 Q1037 855 1110 898 Q1242 754 1289 754 L1289 665 Q1265 573 858 396 Q858 264 805 146 L823 146 Q1048 271 1342 504 L1360 469 Q1042 94 787 21 Q769 -34 679 -34 L661 3 L661 38 Q733 139 769 325 L769 378 Q721 337 500 308 Q465 325 447 325 L447 343 Q447 367 787 486 Q818 570 841 683 L823 683 Q643 593 357 522 L339 558 Q339 659 573 790 Q1002 1186 1002 1220 L984 1220 Q591 1130 429 1130 L429 1184 Q931 1310 1055 1310 ZM1467 1023 Q1503 995 1539 646 L1539 630 Q1539 593 1503 593 L1450 593 Q1450 614 1397 898 Q1420 1023 1467 1023 ZM911 719 L894 504 L1180 646 Q1180 701 1127 701 L1127 719 L1145 754 L1073 790 Q944 719 911 719 Z" /><glyph glyph-name="uni524D" unicode="&#x524d;" d="M1484 1577 L1662 1577 Q1662 1559 1680 1524 Q1680 1460 1376 1345 Q1269 1296 1269 1273 L1466 1308 L1466 1290 Q1537 1305 1537 1326 L1627 1308 L1753 1308 L1753 1237 L1627 1255 Q338 1029 338 951 L302 951 L302 986 Q440 1087 911 1202 Q1155 1266 1502 1506 L1502 1524 L1466 1524 Q1484 1559 1484 1577 ZM803 1506 Q894 1386 983 1345 Q1017 1363 1036 1363 L1053 1326 L1053 1308 L965 1290 Q847 1290 715 1470 L715 1487 L803 1506 ZM983 1058 L1018 1058 L1018 1023 Q965 941 965 879 L1053 897 L1126 897 Q1202 897 1216 432 Q1216 413 1197 378 L1216 270 L1216 164 Q1216 109 1161 -52 L1126 -52 Q1101 -52 1072 2 L1072 20 L1108 74 L1108 343 L876 200 L876 92 Q876 -105 821 -105 L786 -105 Q786 -86 768 -52 Q786 71 786 146 L786 182 L696 164 L678 164 L678 200 Q683 235 715 235 L750 217 Q803 288 821 486 L786 504 Q786 479 678 432 L607 432 L607 521 Q857 567 857 665 L857 683 L839 771 Q935 1055 983 1058 ZM1698 1040 Q1841 1040 1841 771 L1841 270 L1859 92 L1841 92 L1859 56 L1859 -105 L1896 -158 L1896 -176 Q1830 -176 1806 -302 L1735 -302 L1556 -141 L1556 -87 L1645 -87 Q1645 -129 1735 -176 L1753 -176 L1753 182 Q1753 303 1735 396 Q1753 489 1753 611 L1753 826 L1716 879 Q1735 914 1735 933 Q1691 970 1662 970 L1662 1005 Q1668 1040 1698 1040 ZM929 646 Q947 611 947 593 L1072 593 L1072 575 Q1072 539 929 521 Q911 490 892 306 L911 306 Q1092 375 1108 432 L1108 826 Q947 826 947 718 Q947 646 929 646 ZM1412 701 L1448 701 Q1519 701 1519 486 L1519 360 Q1519 268 1466 253 L1448 253 Q1412 253 1412 288 Q1412 316 1430 575 L1412 701 Z" /><glyph glyph-name="uni529F" unicode="&#x529f;" d="M1459 1319 L1477 1319 Q1480 1278 1500 1247 Q1501 1014 1464 799 Q1698 853 1884 924 L1905 888 Q1844 -8 1637 -8 Q1433 67 1414 297 L1411 332 L1429 332 L1571 135 L1647 81 Q1742 234 1807 781 L1822 817 L1767 817 L1456 691 L1370 404 Q1136 -44 994 -44 Q989 18 1154 189 Q1296 446 1290 530 Q1314 530 1331 673 L1313 673 Q1172 619 1048 619 L1013 619 L1007 691 L1060 691 Q1379 734 1371 835 Q1420 1319 1459 1319 ZM913 960 Q951 955 953 924 L954 907 L837 799 L857 763 L846 691 L866 655 Q836 397 791 244 L792 225 Q1038 374 1199 530 L1217 530 L1220 494 Q1102 297 749 100 L663 45 Q630 27 611 27 L591 63 L587 118 Q754 118 774 673 L764 799 Q453 691 397 691 L362 691 L269 709 L265 763 Q508 763 895 960 L913 960 Z" /><glyph glyph-name="uni52A0" unicode="&#x52a0;" d="M838 1399 L873 1399 Q909 1394 909 1363 L909 1328 Q909 1264 891 1167 L909 1130 Q891 985 855 862 Q984 880 1088 915 Q1232 895 1232 844 L1232 807 Q1232 487 981 2 L873 -106 Q770 -106 748 37 Q748 55 767 55 L748 146 L748 216 L802 216 Q820 -35 873 -35 Q1017 242 1160 719 L1143 754 L1143 844 Q820 797 820 701 Q670 92 443 -124 L390 -124 L372 -53 Q503 -53 712 683 L712 736 Q505 683 281 683 L211 683 L193 754 L228 772 L318 772 Q767 817 767 862 Q820 1122 820 1220 L820 1274 L855 1328 Q838 1359 838 1399 ZM1286 898 L1322 898 Q1336 898 1411 772 Q1422 826 1554 826 L1591 826 Q1955 826 2003 701 L2003 665 Q2003 562 1806 449 Q1806 436 1698 342 L1716 342 Q1813 360 1877 360 Q1914 354 1914 325 L1914 288 Q1914 252 1859 252 Q1545 234 1483 234 Q1483 208 1430 181 L1411 181 Q1346 181 1286 898 ZM1393 736 L1393 719 L1447 288 Q1781 518 1895 665 Q1895 709 1698 736 L1519 736 Q1478 736 1447 719 Q1413 736 1393 736 Z" /><glyph glyph-name="uni52A1" unicode="&#x52a1;" d="M885 1598 L903 1598 Q1082 1598 1082 1400 Q847 1132 777 1132 L759 1167 L759 1203 Q795 1203 848 1293 Q952 1437 974 1437 L974 1455 L885 1579 L885 1598 ZM1369 1437 Q1458 1412 1458 1382 L1458 1311 L1244 988 L1226 988 L1226 951 Q1773 751 1907 683 L1907 610 L1818 593 Q1778 593 1745 610 Q1712 610 1602 575 L1584 610 L1584 646 L1692 665 L1692 683 Q1577 683 1171 880 L1135 880 Q900 511 454 378 L364 378 Q321 414 293 414 L293 467 L383 449 Q652 449 1064 915 Q848 988 848 1006 Q830 1006 830 988 L742 1006 L669 1006 L669 1024 Q675 1059 706 1059 L830 1059 Q903 1059 1135 1006 L1297 1238 L1352 1329 Q1313 1346 1153 1364 L1153 1382 Q1153 1422 1369 1437 ZM1279 736 L1334 736 L1334 646 Q1334 598 1297 540 Q1450 557 1531 557 Q1763 557 1763 342 L1763 323 Q1548 -322 1334 -322 L1334 -305 L1297 -322 Q1118 -237 1118 -53 Q1135 37 1208 37 L1226 0 L1226 -17 Q1226 -53 1190 -53 Q1190 -17 1153 -17 L1153 -35 Q1215 -35 1261 -232 L1334 -232 Q1509 -119 1620 162 Q1678 338 1692 342 Q1674 449 1566 486 L1531 467 L1423 467 Q1244 467 1244 323 Q1244 314 1082 -17 Q1082 -36 885 -214 L830 -214 Q795 -214 795 -179 Q1021 -13 1171 431 L1135 431 Q1066 431 687 360 L633 360 L633 414 L1208 540 Q1279 719 1279 736 Z" /><glyph glyph-name="uni52A8" unicode="&#x52a8;" d="M884 1283 Q919 1266 939 1266 L939 1193 Q655 1140 365 1140 L365 1193 L490 1230 L490 1212 Q791 1251 884 1283 ZM1386 1266 L1403 1266 L1403 1140 Q1403 1122 1386 1122 Q1386 1104 1403 1104 L1386 1014 L1386 978 L1421 978 Q1794 1036 1834 1069 Q1978 1017 1978 907 Q1978 865 1852 548 Q1668 28 1512 28 Q1337 28 1297 315 Q1315 346 1315 388 L1279 388 Q1199 -7 1099 -7 Q1084 -7 955 46 L955 118 Q1004 118 1063 83 Q1189 333 1279 764 L1260 800 L1279 835 L1242 835 Q1189 835 939 764 L939 782 L902 764 L866 764 L866 817 Q895 876 1260 943 L1297 943 Q1297 1266 1386 1266 ZM1350 1193 L1350 1157 Q1386 1157 1386 1193 L1350 1193 ZM1315 495 Q1396 219 1458 118 L1512 118 Q1709 357 1870 870 L1870 943 L1834 961 Q1557 888 1386 870 L1315 495 ZM329 817 L382 817 L382 764 Q329 764 329 728 L347 728 L705 800 L776 800 Q813 794 813 764 L813 728 Q611 501 473 227 L490 227 Q866 366 866 513 L920 548 L939 548 Q974 542 974 513 Q955 415 955 351 L955 333 Q1028 333 1028 190 L1028 172 L939 172 Q906 172 866 333 L848 333 Q576 136 455 136 L382 154 L382 262 Q502 488 705 709 L705 728 Q542 674 311 638 Q221 661 221 691 L221 709 Q256 782 329 817 Z" /><glyph glyph-name="uni5305" unicode="&#x5305;" d="M804 1498 L822 1498 Q912 1474 912 1372 L912 1356 Q912 1114 642 961 L517 925 L517 996 Q633 996 804 1266 Q840 1380 840 1409 Q804 1409 804 1445 L804 1498 ZM1306 1212 L1468 1212 Q1540 1117 1540 1086 Q1505 835 1091 441 Q918 369 859 369 Q823 386 804 386 Q696 386 696 136 L696 -44 Q742 -81 859 -134 L947 -116 L1252 -116 Q1293 -116 1324 -98 L1361 -116 Q1555 -80 1611 -80 Q1610 -1 1540 100 L1540 118 Q1540 136 1557 136 L1503 369 Q1510 404 1540 404 Q1693 44 1719 -98 Q1719 -187 1109 -224 L1073 -205 Q950 -224 877 -224 Q572 -201 572 -26 Q607 299 607 333 L589 333 Q557 315 517 315 L499 351 L499 369 L642 476 L642 674 L660 709 Q566 709 499 728 Q499 709 481 709 L481 781 Q598 817 642 817 L894 817 Q1109 758 1109 709 Q1109 602 912 530 L912 494 L947 512 L1001 476 Q1189 619 1288 781 Q1361 857 1450 1068 Q1422 1140 1396 1140 L1361 1140 L1145 1122 Q1217 1212 1306 1212 ZM733 728 L733 709 Q804 709 804 584 Q900 584 1001 691 Q842 728 786 728 L786 709 L751 728 L733 728 ZM733 620 L733 512 Q768 530 786 530 L786 548 Q751 592 751 620 L733 620 ZM786 476 L786 458 L840 458 L840 476 L786 476 Z" /><glyph glyph-name="uni5355" unicode="&#x5355;" d="M1307 1577 L1378 1577 L1378 1434 Q1214 1219 1128 1219 L1128 1166 Q1163 1166 1163 1111 L1413 1166 L1521 1166 Q1610 1111 1610 1040 L1593 1003 L1610 968 Q1548 769 1449 557 Q1449 521 1413 521 Q1413 478 1682 343 L1682 252 L1199 127 L1199 -302 L1163 -302 Q1116 -302 1093 20 Q1109 55 1109 74 L1074 92 Q847 20 592 -34 L573 2 L573 38 Q618 91 859 217 Q859 199 877 199 Q877 230 1074 306 L1093 343 L1093 378 Q834 288 788 288 Q727 334 627 826 Q613 826 573 915 L573 933 Q573 950 592 950 Q519 1080 519 1147 L555 1166 L644 1166 Q685 1166 716 1147 Q799 1184 894 1184 L894 1201 Q716 1359 716 1487 L751 1487 Q855 1405 967 1219 L985 1219 Q985 1250 1163 1326 L1325 1523 L1289 1523 Q1307 1558 1307 1577 ZM698 1111 L609 1111 L609 1093 L680 968 Q1074 1053 1074 1111 Q1074 1152 1093 1184 L1074 1184 Q1074 1151 698 1111 ZM1217 1040 L1217 1003 Q1217 891 1325 861 Q1343 829 1343 789 L1343 771 Q1199 665 1199 539 Q1217 539 1217 521 Q1307 557 1307 575 Q1270 633 1270 665 L1307 683 Q1343 625 1343 592 Q1521 875 1521 1022 L1468 1093 L1217 1040 ZM1145 986 L1181 986 L1181 1022 Q1145 1017 1145 986 ZM716 879 L824 414 Q1093 599 1093 753 L1074 753 Q985 753 985 665 L967 665 Q859 712 859 807 Q1093 835 1093 879 L1093 986 Q763 879 716 879 ZM1181 879 L1217 879 L1217 915 Q1181 909 1181 879 ZM1020 502 L1002 432 Q1045 467 1074 467 Q1074 502 1038 502 L1020 502 ZM1360 449 Q1360 400 1181 343 L1181 235 L1199 235 Q1250 235 1557 306 L1557 325 Q1508 325 1378 449 L1360 449 ZM859 146 L859 127 L894 127 Q995 182 1093 182 L1093 270 L1074 270 Q918 146 859 146 Z" /><glyph glyph-name="uni539F" unicode="&#x539f;" d="M1404 1469 L1475 1469 L1475 1434 Q1438 1368 956 1219 Q956 1191 920 1147 L920 1058 Q1122 1058 1243 1219 L1206 1219 Q1225 1254 1225 1273 L1296 1273 Q1332 1267 1332 1237 L1332 1147 L1188 1041 L1118 1041 L1118 1023 L1188 1023 Q1305 1058 1350 1058 L1636 1058 Q1773 1058 1797 986 L1797 861 Q1797 799 1654 718 L1689 665 L1689 628 Q1655 628 1404 522 L1404 -52 Q1404 -194 1296 -194 Q1267 -94 1135 21 Q1135 97 1064 127 L938 217 L920 217 Q920 199 938 199 Q938 164 903 74 Q938 68 938 38 L938 21 Q938 -15 903 -15 L885 -15 Q813 14 813 109 Q850 325 903 325 L920 325 Q1243 55 1243 21 L1278 3 L1296 127 L1296 467 Q1031 396 1010 396 L974 396 L974 449 Q974 486 1314 575 Q1314 718 1369 718 L1422 718 Q1439 718 1439 700 Q1528 700 1565 826 Q1547 826 1547 844 Q1415 826 1027 683 L992 683 L992 718 Q1038 801 1457 933 Q1654 933 1654 844 L1672 844 Q1672 879 1707 879 L1707 951 Q1654 951 1654 968 Q1636 968 1636 951 L1547 968 Q1309 968 1118 915 L1118 933 Q1047 897 920 897 L920 807 L938 718 L920 718 Q944 696 956 467 L903 467 Q854 467 831 700 L850 700 Q831 735 831 754 L813 754 Q621 -105 402 -105 L366 -105 Q276 -59 276 38 L276 56 L330 56 L402 -34 Q634 293 634 504 Q669 540 850 1202 Q624 1166 599 1166 L581 1202 Q654 1249 850 1273 L956 1452 L1010 1452 L1010 1398 L974 1345 L974 1326 L992 1326 Q1296 1398 1404 1469 ZM920 1005 L920 986 L974 986 L974 1005 L920 1005 ZM1404 610 L1439 610 Q1474 628 1493 628 L1493 646 L1439 646 Q1404 642 1404 610 ZM1636 378 Q1766 378 1923 182 L1923 91 Q1923 56 1888 56 Q1709 244 1619 288 L1511 288 L1511 325 Q1614 378 1636 378 Z" /><glyph glyph-name="uni53BB" unicode="&#x53bb;" d="M1062 1543 L1080 1543 Q1145 1543 1188 1167 L1171 1130 Q1193 1041 1224 1041 L1243 1041 L1243 1059 L1206 1112 L1243 1112 Q1283 1112 1314 1095 L1350 1112 Q1385 1095 1404 1095 L1404 1041 Q1404 993 1188 951 L1188 933 Q1188 700 1062 700 L1045 700 L1099 790 L1099 933 Q930 898 830 898 L757 898 Q722 898 722 933 L1099 1023 L1062 1417 Q1080 1417 1080 1435 Q1027 1435 1027 1526 L1062 1543 ZM1655 790 L1672 754 L1672 736 Q1626 665 1440 593 Q1189 446 1062 306 Q776 -9 776 -71 L866 -71 Q897 -71 1493 90 Q1493 108 1511 108 Q1350 322 1350 377 L1385 395 L1422 395 L1655 144 Q1655 102 1834 -142 L1852 -233 Q1852 -268 1816 -268 L1781 -268 L1584 37 Q1584 55 1566 55 Q1193 -89 1171 -89 L1171 -71 Q987 -142 848 -142 L757 -142 Q714 -107 686 -107 L686 -17 Q1163 573 1404 628 L1404 665 Q525 413 364 395 L346 431 L346 449 Q1262 718 1655 790 Z" /><glyph glyph-name="uni53CA" unicode="&#x53ca;" d="M1316 1348 L1351 1258 Q1351 1202 1136 898 Q1136 863 1351 827 Q1442 775 1442 666 Q1460 666 1460 611 Q1416 460 1333 325 L1333 288 Q1391 288 1765 18 L1765 -35 Q1765 -71 1728 -71 L1692 -71 L1369 144 Q1368 169 1280 216 L1261 216 Q1087 -53 902 -53 Q794 -17 794 90 L794 216 L867 216 Q867 155 885 126 Q867 95 867 54 L902 37 L938 37 Q1064 108 1190 270 Q1166 320 885 467 Q863 314 561 18 L508 18 Q471 18 471 54 L471 72 Q745 285 867 630 L992 916 L973 953 Q998 1078 1101 1078 L1101 1042 Q1101 1007 1046 1007 L1064 971 Q1064 818 938 557 L938 522 Q1030 522 1261 360 Q1351 511 1351 719 Q1244 827 1101 827 Q1082 862 1082 881 Q1082 947 1280 1276 L1261 1276 Q585 1036 561 934 Q435 959 435 989 Q528 1222 650 1222 L669 1186 L597 1097 L597 1078 L614 1078 Q614 1144 1117 1312 Q1117 1334 1316 1348 Z" /><glyph glyph-name="uni53CB" unicode="&#x53cb;" d="M1083 1491 Q1209 1491 1209 1274 Q1280 1041 1406 1041 Q1424 1006 1424 988 Q1320 938 974 844 L886 502 L886 484 L902 484 Q902 614 1172 646 Q1235 646 1333 538 L1333 484 Q1333 366 1190 196 L1460 -1 Q1647 -73 1693 -145 L1693 -180 Q1693 -216 1658 -216 Q1537 -203 1118 108 L1101 108 Q905 -106 651 -163 Q508 -145 508 -109 Q526 -73 526 -54 L543 -54 L579 -72 Q705 184 705 269 L705 322 Q766 322 867 826 L849 826 Q613 754 543 754 L526 790 L526 826 Q939 896 939 1024 Q1005 1322 1083 1491 ZM1118 1400 L1010 951 L1136 970 L1172 970 Q1172 1006 1262 1006 L1262 1024 Q1154 1095 1154 1293 L1136 1400 L1118 1400 ZM849 340 Q1053 311 1118 233 Q1218 413 1245 413 L1245 521 Q1227 521 1118 574 Q849 515 849 340 ZM813 269 Q813 178 651 -90 L687 -90 Q879 3 1046 179 Q872 269 813 269 Z" /><glyph glyph-name="uni53CD" unicode="&#x53cd;" d="M1225 1402 L1261 1402 Q1261 1365 1298 1365 L1298 1258 Q1298 1222 920 1150 Q879 1097 794 1097 L740 1097 Q776 934 776 863 Q740 636 579 37 Q579 -18 543 -18 L524 -18 Q488 -18 488 18 L506 54 Q506 72 488 72 Q687 728 687 988 Q687 1036 597 1078 Q498 1060 453 1060 L453 1150 L471 1150 Q511 1150 543 1132 Q683 1132 1172 1312 L1207 1312 L1207 1347 L1172 1347 Q1172 1374 1225 1402 ZM1440 970 L1477 970 Q1504 970 1548 898 L1548 790 Q1408 398 1279 360 L1279 323 Q1311 323 1746 -54 L1746 -72 Q1746 -126 1675 -126 Q1636 -126 1207 269 Q1011 54 831 54 Q719 90 687 90 L687 181 L722 181 Q722 126 794 126 Q885 126 1154 305 L1154 342 Q919 486 847 486 L847 522 Q867 522 902 539 Q1063 525 1207 395 Q1460 678 1477 881 L1440 898 L1405 898 Q1324 898 866 646 L866 683 Q866 812 1440 970 Z" /><glyph glyph-name="uni53D1" unicode="&#x53d1;" d="M1438 1543 L1493 1543 Q1516 1543 1655 1382 L1655 1328 Q1522 1328 1457 1490 L1438 1490 L1438 1543 ZM1135 1507 L1170 1507 Q1206 1507 1242 1328 Q1418 1248 1422 1220 Q1357 1132 1152 1059 Q973 957 973 845 L919 646 Q919 714 1296 772 Q1324 772 1368 701 L1368 683 Q1354 478 1188 235 L1637 -88 L1637 -70 Q1601 -5 1601 73 L1601 91 L1619 91 L1833 -196 L1833 -267 L1762 -267 Q1659 -267 1152 127 L1135 127 Q956 -88 812 -88 L740 -88 Q652 -41 651 -15 L651 38 L740 -15 L812 -15 Q924 -15 1063 199 Q848 325 848 360 L812 360 L543 -88 Q519 -88 454 -159 L399 -159 Q364 -159 364 -123 L364 -106 Q364 51 508 217 L525 181 Q500 181 435 -34 L454 -34 Q533 40 704 360 L704 378 Q648 378 578 306 L578 343 Q826 608 883 827 Q883 840 901 933 Q628 754 435 754 Q400 772 382 772 L382 790 Q382 865 543 1150 Q596 1278 596 1311 L651 1311 L651 1293 Q651 1128 490 845 L525 845 Q956 971 956 1114 Q956 1305 1135 1507 ZM1135 1418 Q1045 1135 1045 1077 L1063 1077 Q1314 1204 1314 1220 L1314 1238 Q1232 1238 1170 1418 L1135 1418 ZM830 414 Q913 414 1135 290 L1135 306 L1296 611 L1296 701 Q1224 701 1224 719 Q830 605 830 414 Z" /><glyph glyph-name="uni53E6" unicode="&#x53e6;" d="M706 1561 Q745 1561 812 1382 Q999 1400 1117 1435 L1117 1418 Q1161 1435 1298 1454 Q1458 1409 1458 1346 Q1458 1215 1064 862 L1046 862 L1046 844 L1064 844 L1477 988 Q1512 982 1512 951 Q1512 908 1298 862 Q1298 826 1207 826 L1225 790 L1225 718 Q1225 678 1207 646 Q1243 588 1243 557 Q1218 557 1190 504 L1190 486 L1512 521 Q1763 521 1763 360 Q1756 173 1440 -161 Q1304 -286 1225 -286 L1190 -286 Q1017 -286 993 -17 Q776 -268 670 -268 L651 -232 L651 -197 Q829 -197 1028 378 L507 270 L436 270 L436 342 Q793 539 830 539 L741 413 Q1064 481 1064 504 L1046 539 Q1064 593 1081 593 L1064 630 L1117 736 L1117 772 L1099 772 Q983 736 938 736 L885 736 L885 790 L956 880 Q816 1074 670 1544 L706 1561 ZM867 1293 Q981 963 1046 951 Q1351 1256 1351 1346 L1333 1346 Q1316 1346 1316 1364 L867 1293 ZM1117 270 L1117 288 L1135 325 L1117 325 Q1081 229 1064 73 Q1064 -89 1135 -89 L1117 -179 Q1172 -197 1172 -215 Q1415 -157 1656 306 Q1674 306 1674 360 Q1674 404 1495 431 Q1154 431 1154 306 Q1154 270 1117 270 Z" /><glyph glyph-name="uni53EA" unicode="&#x53ea;" d="M463 1347 L481 1347 Q592 1347 695 1077 L713 1077 Q713 1132 1288 1203 Q1557 1179 1557 1077 Q1557 948 1108 630 L1108 611 L1126 611 Q1131 663 1504 755 L1557 755 L1557 701 Q1557 665 1234 593 L894 450 L786 467 L786 522 L821 575 L660 880 Q660 1016 498 1274 Q498 1293 463 1293 L463 1347 ZM876 1042 Q841 1060 821 1060 L750 988 Q857 772 894 611 Q1018 611 1449 1060 L1449 1077 L1360 1095 L1234 1095 Q1005 1095 876 1042 ZM1396 378 L1467 378 Q1482 378 1701 127 Q1736 127 1736 -17 Q1719 -52 1719 -70 L1646 -70 Q1646 28 1431 288 Q1360 288 1360 342 Q1366 378 1396 378 ZM624 288 L660 288 Q757 288 786 217 Q786 -35 571 -52 L553 -52 L553 -35 Q694 89 695 217 Q624 217 624 253 L624 288 Z" /><glyph glyph-name="uni53EF" unicode="&#x53ef;" d="M1674 1490 L1693 1454 L1693 1400 Q1483 1347 1405 1347 L1405 1311 Q1495 920 1495 575 L1495 467 L1514 360 Q1471 -214 1333 -214 Q1206 -214 974 -142 L974 -106 L1046 -106 Q1086 -106 1118 -124 Q1149 -106 1190 -106 L1262 -106 L1262 -142 L1279 -142 Q1365 -142 1405 234 Q1388 269 1388 288 Q1388 368 1405 396 Q1388 1149 1333 1149 Q1209 971 1209 934 L1154 934 L1315 1221 Q1315 1301 1333 1329 L1315 1329 Q742 1197 742 1167 Q599 1076 599 844 Q777 862 867 862 L939 862 Q1065 827 1083 827 Q1088 862 1118 862 L1136 862 L1136 844 Q1136 809 1083 809 L1083 772 Q1083 558 723 270 L652 270 Q508 458 508 772 Q508 1071 652 1203 Q562 1203 562 1239 L562 1293 L687 1274 L760 1274 Q802 1311 1118 1365 Q1188 1412 1674 1490 ZM669 755 Q742 516 742 396 L760 396 Q760 434 849 539 Q918 614 992 737 L904 790 Q858 790 669 755 ZM616 701 L616 593 L634 504 L652 504 L652 539 Q634 637 634 701 L616 701 Z" /><glyph glyph-name="uni53F0" unicode="&#x53f0;" d="M840 1515 L929 1515 Q1145 1374 1145 1265 Q1145 1239 696 817 Q517 657 517 637 L517 620 Q574 620 1377 907 Q1341 1020 1341 1049 L1395 1049 Q1826 728 1826 655 L1826 620 Q1758 512 1664 512 L1664 548 L1735 637 Q1464 840 1448 870 Q1430 870 1395 888 Q1395 821 517 512 L499 512 Q480 512 480 530 L445 512 Q418 512 374 584 L374 602 Q374 625 804 1049 Q1019 1243 1019 1283 Q1019 1305 840 1497 L840 1515 ZM785 458 L875 458 Q875 440 893 404 Q840 404 840 368 L840 350 Q994 404 1306 404 Q1664 381 1664 262 Q1664 192 1395 10 Q1556 10 1556 -25 Q1556 -75 1252 -98 L1054 -98 Q1019 -98 1019 -61 Q1052 -6 1341 81 Q1539 227 1539 262 Q1430 293 1145 315 Q1110 297 1090 297 L1090 315 Q875 297 875 225 Q875 118 929 118 Q929 100 911 100 L1036 -169 L1036 -187 Q1036 -213 983 -240 Q911 -240 749 262 L749 423 Q755 458 785 458 Z" /><glyph glyph-name="uni53F7" unicode="&#x53f7;" d="M690 1571 L726 1571 Q775 1536 803 1536 Q818 1536 943 1553 L945 1536 L980 1553 L1303 1553 Q1482 1553 1503 1410 Q1490 1314 1294 1122 L1283 1087 L1300 1087 L1467 1176 L1556 1176 L1567 1105 Q1457 1105 914 800 L896 800 Q870 800 834 853 L828 890 L961 961 Q718 1383 706 1463 L724 1463 L701 1500 L690 1571 ZM921 1463 L850 1463 L858 1410 Q865 1362 910 1301 L905 1213 Q942 1207 946 1176 Q928 1176 931 1158 Q1002 1158 1021 1032 L1058 1032 Q1296 1243 1413 1410 L1411 1427 Q1265 1481 1206 1481 L1135 1481 Q1095 1481 1064 1463 Q1047 1463 1045 1481 L921 1463 ZM1758 908 L1776 908 Q1812 902 1817 872 Q1819 846 1396 691 Q1399 671 1115 404 L1134 404 L1131 423 L1170 404 L1332 404 Q1725 404 1749 244 Q1615 -295 1257 -295 Q1112 -295 988 -61 L1006 -61 Q1147 -159 1153 -205 L1206 -205 Q1248 -205 1282 -224 Q1533 -134 1623 136 Q1650 201 1638 280 Q1521 333 1289 333 L1217 333 Q1145 333 989 298 L986 316 Q971 418 1303 709 L1301 728 Q713 585 389 585 L346 638 L341 674 Q350 715 569 817 L588 817 L593 782 Q530 691 444 691 L449 656 Q1195 764 1758 908 Z" /><glyph glyph-name="uni5404" unicode="&#x5404;" d="M678 1426 L696 1426 Q875 1325 875 1084 L768 905 Q768 888 750 888 L696 888 L696 959 Q750 959 785 1157 Q726 1330 678 1389 L678 1426 ZM1251 1227 L1304 1227 Q1341 1227 1341 1174 Q1320 1052 1089 708 L1089 690 Q1597 494 1825 458 L1825 404 L1734 386 Q1608 386 1019 620 Q631 225 500 225 L409 225 Q374 225 374 262 Q380 297 409 297 Q444 279 464 279 Q565 314 785 530 Q879 637 928 637 Q928 691 570 726 L570 763 Q580 763 643 781 L678 763 L714 781 L750 763 L785 781 Q922 744 1001 744 Q1041 787 1233 1103 L1251 1103 L1251 1174 L1162 1157 L1054 1157 L1054 1174 Q1054 1227 1251 1227 ZM893 423 L875 297 L875 244 Q945 57 983 -151 L928 -151 Q857 -151 804 297 L804 315 Q804 380 893 423 ZM1323 386 Q1556 351 1556 262 L1556 244 Q1556 178 1376 28 Q1491 28 1502 -25 Q1502 -70 1054 -115 L1054 -61 L1251 64 Q1329 64 1448 244 Q1448 297 1251 297 Q1154 262 893 225 L893 297 Q1161 369 1323 386 Z" /><glyph glyph-name="uni540C" unicode="&#x540c;" d="M1233 1400 L1234 1383 L1264 1400 L1399 1400 Q1648 1400 1711 1267 Q1724 -205 1684 -205 L1623 -205 Q1545 -124 1451 -105 Q1447 -42 1309 -4 L1306 45 Q1547 -17 1631 -105 Q1615 565 1635 565 L1618 598 Q1657 907 1639 1199 Q1631 1334 1420 1334 Q1061 1334 536 1183 L519 1216 Q514 1295 1233 1400 ZM384 1199 L399 1199 Q560 1060 584 664 Q595 260 574 146 Q590 114 591 95 L562 80 L547 80 Q516 80 513 129 Q512 626 503 765 Q492 931 384 1199 ZM1173 1166 Q1203 1150 1219 1150 L1224 1083 L956 1000 L925 1016 Q896 1000 881 1000 Q865 1000 864 1016 L790 1000 L729 1000 L727 1032 Q724 1081 1129 1133 Q1128 1150 1173 1166 ZM1205 898 Q1311 849 1329 849 L1330 833 Q1338 709 1105 565 L1107 531 L1214 531 Q1215 513 1232 480 Q1127 453 1129 430 L1022 447 L932 447 Q935 397 904 397 L873 397 Q825 397 749 698 Q719 698 714 765 Q747 872 782 882 L798 882 L801 833 L1205 898 ZM822 732 L824 715 Q826 673 882 514 L1229 765 L1227 781 Q1197 781 1197 798 Q1032 781 822 732 ZM988 514 L1018 514 L1016 548 Q986 542 988 514 Z" /><glyph glyph-name="uni540E" unicode="&#x540e;" d="M1100 1409 L1118 1409 Q1221 1372 1261 1284 L1261 1193 Q1261 1158 1226 1158 L1226 1175 Q1160 1140 1082 1140 L1082 1158 L1047 1140 Q1028 1140 1028 1158 L992 1140 Q974 1140 974 1158 L848 1140 Q721 1140 652 1175 L652 1140 Q705 1095 705 656 L705 585 Q670 33 561 -25 L526 -25 Q500 -25 473 46 Q473 75 544 119 Q616 573 616 674 Q616 692 598 692 L616 781 L616 817 Q616 973 526 1248 L561 1266 Q651 1212 866 1212 Q1010 1248 1047 1248 L1047 1230 Q1171 1254 1171 1284 Q1141 1354 1100 1354 L1100 1409 ZM1351 997 Q1458 997 1458 888 L1458 872 L1368 853 L1368 907 Q1212 907 760 728 L760 746 Q857 872 1244 979 Q1257 979 1351 997 ZM939 638 L992 638 L992 585 Q1255 620 1279 620 L1387 620 Q1727 620 1727 459 Q1616 258 1351 172 L1351 154 Q1465 154 1547 28 Q1486 11 1476 11 L1261 83 Q1232 83 1118 46 L1100 83 L1100 101 Q1111 133 1494 333 L1602 459 Q1602 494 1387 530 Q1010 505 1010 477 Q1010 149 1082 -115 L1047 -133 L1010 -133 Q921 -110 921 298 L921 406 Q921 420 884 548 Q939 548 939 638 Z" /><glyph glyph-name="uni5411" unicode="&#x5411;" d="M720 1243 L750 1248 Q893 1250 908 1155 Q933 995 419 725 L416 740 Q513 847 696 977 Q817 1121 815 1138 L813 1153 Q809 1173 690 1223 L720 1243 ZM1092 893 L1093 878 L1123 898 L1200 913 Q1807 997 1828 856 Q1757 24 1669 -69 L1591 -83 Q1582 -27 1471 -28 Q1368 126 1364 155 L1393 175 Q1399 133 1590 26 L1593 10 L1607 12 Q1647 20 1734 839 Q1588 891 1270 864 Q938 788 508 648 L503 679 Q640 765 696 776 L698 760 Q753 801 1092 893 ZM310 597 L356 605 Q383 601 612 188 Q623 190 670 121 L677 76 L614 65 Q575 57 313 582 L310 597 ZM948 682 L1135 716 Q1350 755 1362 679 Q1375 589 1210 436 Q1242 426 1258 429 L1269 353 L1254 350 Q1237 347 1205 357 Q1010 282 1013 261 L1046 158 L1018 138 L1002 135 Q979 131 903 257 L896 301 Q894 317 910 320 Q839 538 828 536 L781 528 L774 572 Q841 663 948 682 ZM870 574 L874 545 Q937 551 953 450 L969 344 L985 347 Q1170 489 1272 647 L1242 641 Q1161 627 929 600 Q905 580 870 574 Z" /><glyph glyph-name="uni5427" unicode="&#x5427;" d="M1637 1274 Q1763 1216 1763 1132 Q1763 948 1404 719 Q1353 625 1278 540 L1296 540 Q1512 623 1512 665 L1512 683 Q1619 660 1619 630 L1619 593 Q1226 414 1135 414 Q1135 432 1117 432 L1117 325 Q1117 234 1081 109 L1117 91 L1369 91 Q1790 91 1817 199 L1817 432 Q1865 432 1924 235 Q1924 2 1351 2 L1135 2 Q973 2 973 91 Q1028 296 1028 665 L1028 719 Q1028 759 1009 790 Q1009 809 1028 809 L1009 898 Q1031 1059 1135 1059 L1172 1059 Q1216 1006 1243 1006 L1243 951 L1207 951 L1153 988 L1117 988 L1117 701 L1135 593 Q1117 563 1117 504 Q1186 547 1314 755 L1314 809 L1333 809 L1333 863 Q1333 882 1296 1059 L1351 1059 Q1386 1059 1440 845 L1458 845 Q1656 1006 1656 1132 L1619 1185 L1583 1168 Q1147 1132 1099 1132 L1064 1132 Q1028 1132 1028 1168 L1028 1203 Q1289 1256 1637 1274 ZM310 1006 L346 1006 Q346 983 418 827 L454 845 L615 845 Q754 845 794 755 L794 737 Q794 532 651 343 L651 325 Q761 360 794 360 Q920 343 920 306 L920 271 L812 271 Q507 210 507 127 L454 127 L418 146 L436 271 L363 719 L328 719 L328 737 Q328 890 275 951 L275 970 Q280 1006 310 1006 ZM507 755 L454 755 L454 737 Q507 571 507 325 L525 325 Q525 348 705 646 L705 737 Q671 737 580 772 Q548 755 507 755 Z" /><glyph glyph-name="uni542F" unicode="&#x542f;" d="M885 1567 Q1190 1510 1190 1443 L1190 1425 L1243 1425 Q1283 1425 1314 1443 Q1457 1425 1457 1389 L1457 1335 Q1337 1192 1279 1174 L1296 1139 L1296 1084 Q1070 905 850 816 Q629 -292 331 -292 Q306 -292 241 -204 Q259 -204 259 -186 L349 -204 L367 -204 Q529 -204 742 798 L724 798 Q687 798 687 834 L687 852 Q795 909 795 1031 L813 1210 L724 1192 L652 1192 Q617 1192 617 1228 L617 1247 Q741 1282 831 1282 Q850 1389 885 1389 L956 1335 Q1048 1389 1136 1389 L1136 1425 L1118 1425 Q988 1425 813 1497 L813 1550 Q853 1550 885 1567 ZM868 960 L903 960 Q903 994 1243 1228 Q1243 1243 1351 1335 L1351 1353 Q933 1259 903 1228 L868 960 ZM1136 1048 Q1261 1110 1261 1139 L1243 1139 Q1136 1076 1136 1048 ZM1046 995 L1064 995 Q1089 995 1118 1048 Q1046 1022 1046 995 ZM1064 728 L1118 728 L1118 584 Q1424 655 1637 655 L1654 655 Q1959 602 1959 529 Q1959 363 1583 244 L1583 225 L1601 225 Q1698 244 1762 244 L1780 244 Q1815 237 1815 208 L1815 154 L1654 118 L1422 118 Q1290 118 1279 172 Q1279 225 1493 279 L1852 477 L1852 512 Q1648 547 1565 547 Q1261 547 1100 477 Q1118 237 1171 64 L1171 46 Q1171 11 1136 11 Q1048 11 1011 386 L1029 477 L1011 512 L1064 728 Z" /><glyph glyph-name="uni544A" unicode="&#x544a;" d="M1261 1498 L1261 1391 L1280 1301 L1333 1336 Q1333 1271 1548 1212 L1548 1175 Q1548 1146 1315 1031 L1298 925 L1298 744 Q1548 817 1656 817 L1764 817 Q1789 817 1818 763 Q1818 726 1782 726 L1692 744 Q1270 673 1208 602 L1082 602 Q890 523 454 458 L418 458 Q383 458 383 494 Q383 541 993 655 Q998 683 1208 726 L1190 907 L1190 960 L1172 960 Q950 870 885 870 L777 870 Q777 898 741 943 L741 978 Q741 1277 635 1336 L635 1372 Q849 1372 849 943 L885 943 Q1151 1068 1190 1068 L1190 1480 Q1222 1498 1261 1498 ZM1280 1283 L1298 1157 L1298 1122 L1315 1122 Q1424 1169 1424 1193 Q1391 1193 1298 1283 L1280 1283 ZM903 386 L921 386 Q955 368 975 368 L975 333 L957 297 L975 297 Q1056 328 1369 386 L1601 386 Q1710 328 1710 242 L1620 81 L1656 81 L1656 10 L1638 10 Q1270 -44 1172 -44 L1154 -8 L1154 28 Q1620 77 1620 279 L1495 315 Q1071 242 993 242 Q1079 -98 1136 -98 Q1190 -98 1190 -205 L1154 -224 Q961 -224 903 297 L903 386 Z" /><glyph glyph-name="uni552F" unicode="&#x552f;" d="M1386 1640 L1423 1640 Q1423 1539 1118 1264 Q1154 1198 1154 1121 L1154 620 Q1154 475 1136 279 Q1136 262 1154 262 Q1118 22 1118 -294 L1100 -365 L1046 -365 Q1010 -365 1010 -330 Q1065 248 1065 1174 L1065 1209 L1046 1209 L867 1103 L832 1103 L832 1174 Q832 1201 1118 1389 Q1150 1447 1386 1640 ZM1350 1389 L1423 1389 Q1423 1339 1619 1282 L1637 1245 L1619 1209 Q1434 1209 1350 1353 L1350 1389 ZM330 1156 L366 1156 Q438 947 438 887 Q691 959 778 959 L867 959 Q939 924 939 852 Q889 613 509 333 Q509 315 474 315 Q415 315 348 744 Q295 744 295 816 Q325 816 348 924 L330 1031 L330 1156 ZM1691 1103 L1691 1084 L1726 1103 L1745 1103 Q1780 1097 1780 1066 L1780 1048 Q1780 1013 1745 1013 L1708 1031 Q1677 1013 1637 1013 L1637 870 L1655 834 L1745 852 L1834 852 L1852 763 Q1787 708 1726 708 L1726 763 L1655 763 L1655 708 L1637 529 Q1655 529 1655 512 Q1725 529 1780 565 L1816 565 Q1852 559 1852 529 L1852 512 Q1852 450 1637 423 L1637 333 L1619 207 L1745 225 L1816 225 L1906 207 L1906 154 L1887 118 Q1869 118 1834 136 Q1771 136 1368 46 L1333 101 L1333 136 Q1547 155 1547 244 L1566 404 Q1281 315 1190 315 L1154 369 Q1154 414 1297 458 L1386 440 Q1566 472 1566 512 L1566 708 L1547 708 Q1443 708 1368 637 Q1333 655 1315 655 Q1297 602 1207 602 Q1172 602 1172 637 L1172 673 Q1426 784 1566 798 L1566 870 Q1566 910 1547 941 Q1566 976 1566 995 Q1327 924 1279 924 Q1244 924 1244 959 L1244 977 Q1340 1058 1655 1103 L1691 1103 ZM456 763 Q456 649 491 458 L527 458 Q602 631 706 708 L706 637 L725 637 Q725 721 832 798 Q832 839 849 870 L814 870 Q583 870 456 763 Z" /><glyph glyph-name="uni5668" unicode="&#x5668;" d="M1530 1541 Q1619 1510 1619 1451 Q1561 1301 1189 1058 L1189 1040 Q1375 1111 1530 1129 L1547 1093 L1547 1076 Q1547 1040 1512 1040 L1476 1058 L1476 1040 Q1530 922 1530 879 L1530 826 Q1502 665 1440 665 L1440 826 Q1440 869 1368 1022 Q1029 941 1029 879 L1011 807 L1029 807 Q1189 861 1243 861 L1280 861 Q1280 897 1297 897 Q1332 879 1350 879 L1350 807 Q975 761 975 646 Q939 532 939 502 L1011 502 Q1066 502 1458 414 L1547 432 L1547 396 Q1536 343 1404 343 Q1348 343 903 467 Q825 235 635 235 Q601 252 582 252 Q599 283 599 325 L617 325 L653 306 Q835 470 867 665 L849 665 Q630 557 545 557 L510 557 L510 575 Q510 642 885 753 Q1018 1076 1064 1076 Q1064 1308 975 1362 L975 1416 Q1029 1416 1029 1523 L1083 1523 Q1083 1469 1118 1469 Q1214 1523 1530 1541 ZM1136 1362 Q1154 1203 1154 1166 L1172 1166 Q1329 1264 1494 1434 Q1433 1434 1404 1451 Q1136 1398 1136 1362 ZM779 1434 L814 1434 Q911 1434 957 1343 Q880 1158 563 950 Q428 950 313 1362 Q332 1362 366 1380 Q366 1326 421 1326 Q602 1434 779 1434 ZM456 1272 Q456 1241 528 1040 L563 1040 Q563 1062 849 1326 L849 1343 L761 1343 Q720 1343 456 1272 ZM421 270 L438 270 Q474 270 474 109 Q572 182 957 217 Q997 213 1064 109 L1064 38 Q1001 -111 796 -266 L761 -266 Q724 -266 724 -213 Q724 -179 885 -69 Q957 58 957 92 L957 109 Q922 109 922 127 Q545 74 545 20 L492 56 Q515 -158 563 -158 Q599 -141 617 -141 L617 -194 Q617 -236 528 -249 Q416 -249 384 127 L384 235 Q390 270 421 270 ZM1458 235 Q1887 235 1887 74 Q1887 11 1690 -123 L1690 -141 Q1798 -141 1798 -194 Q1781 -228 1781 -249 L1763 -249 Q1746 -249 1619 -213 L1440 -213 Q1404 -213 1404 -176 L1404 -158 L1763 56 L1763 109 Q1527 146 1440 146 Q1280 121 1280 56 Q1297 -165 1297 -176 L1262 -194 L1225 -194 Q1165 -194 1118 127 L1154 127 Q1194 127 1207 38 L1225 38 L1225 74 L1207 74 Q1207 175 1458 235 ZM1225 2 L1225 -52 L1243 -52 L1243 2 L1225 2 Z" /><glyph glyph-name="uni56DE" unicode="&#x56de;" d="M1593 1319 Q1737 1319 1807 1069 Q1785 723 1772 620 L1790 584 Q1778 423 1753 423 Q1753 406 1772 406 Q1737 -43 1664 -43 L1629 -43 Q1359 179 1359 208 L1359 244 Q1474 188 1611 83 Q1629 83 1629 101 L1718 800 Q1718 817 1700 817 L1718 907 Q1718 1248 1574 1248 Q606 1181 606 1069 Q571 1069 571 1104 L571 1122 Q580 1174 767 1248 Q785 1248 785 1230 Q1295 1319 1593 1319 ZM391 1212 L464 1212 Q576 1212 643 602 L643 584 L625 584 L643 548 Q643 513 625 513 L643 388 L643 190 Q643 154 606 154 L553 154 L517 280 L517 333 L553 333 L535 423 L535 548 Q535 979 427 1140 Q427 1168 391 1212 ZM1090 1032 Q1274 1032 1324 925 Q1317 828 1198 728 L1233 728 L1269 746 Q1305 728 1324 728 L1324 674 Q1215 674 1001 548 Q891 495 858 495 Q764 495 660 853 L696 853 L678 888 L678 907 L732 907 Q732 775 893 567 L929 548 Q929 653 1145 782 Q1145 799 1233 907 Q1175 943 1127 943 L1109 943 Q840 943 840 817 L822 817 Q796 817 767 870 L767 943 Q1023 1032 1090 1032 ZM1342 406 L1503 406 L1503 351 Q1326 315 840 172 Q812 190 732 190 L732 244 Q732 275 822 297 Q853 280 893 280 Q1274 406 1342 406 Z" /><glyph glyph-name="uni56E0" unicode="&#x56e0;" d="M1324 1399 L1378 1399 Q1543 1399 1629 1076 Q1665 396 1771 -17 L1771 -106 Q1752 -106 1718 -124 Q1401 -15 1378 109 Q1395 109 1395 127 Q1641 2 1665 2 L1665 20 Q1539 557 1539 1076 Q1539 1189 1360 1328 Q786 1220 624 1167 Q588 1123 588 1094 Q553 1094 553 1130 Q553 1293 982 1346 Q1284 1399 1324 1399 ZM1126 1202 L1145 1202 L1145 1184 L1126 1112 Q1198 988 1198 933 L1198 880 Q968 702 911 449 Q725 199 624 199 L535 199 L535 216 Q761 381 786 486 Q813 486 947 736 L911 736 Q664 660 571 521 L553 521 Q517 175 517 55 L463 55 L427 73 L445 162 Q463 734 463 970 Q463 1000 427 1076 Q445 1111 445 1130 L463 1130 Q517 1130 553 951 L553 701 Q1001 832 1001 897 Q1073 1202 1126 1202 ZM1108 1023 L1108 915 Q1145 915 1145 951 Q1126 985 1126 1006 Q1145 1006 1145 1023 L1108 1023 ZM1145 593 Q1395 426 1395 396 L1395 360 Q1395 306 1252 306 L1269 342 Q1269 379 1037 539 L1037 575 L1145 593 ZM1216 144 Q1298 110 1305 73 L1305 20 Q1290 20 1161 37 Q1001 2 929 2 L840 20 L840 109 L875 109 Q893 109 893 91 Q1066 144 1216 144 Z" /><glyph glyph-name="uni5728" unicode="&#x5728;" d="M1132 1552 L1150 1553 Q1269 1559 1319 1382 Q1506 1246 1510 1177 Q910 958 913 893 Q916 830 833 692 L856 568 L858 532 L850 315 Q1051 398 1326 483 L1325 519 Q1324 538 1306 537 Q1309 861 1362 864 L1398 865 L1515 692 Q1620 624 1715 612 L1717 576 Q1719 526 1419 417 Q1412 199 1394 199 L1413 164 L1418 75 L1404 -15 Q1782 4 1838 -101 L1839 -119 Q1840 -154 1805 -156 Q1589 -114 1463 -121 Q1359 -126 1177 -153 Q1086 -135 1084 -104 Q1083 -78 1136 -47 Q1155 -46 1190 -63 L1298 -39 L1333 -37 L1311 52 Q1319 268 1313 376 L1296 375 Q853 263 856 189 Q864 -205 803 -208 Q745 -211 706 -33 L723 -33 L760 -49 L749 202 L712 200 L710 236 Q782 240 771 472 L770 490 L753 489 Q552 21 442 -154 L407 -156 Q361 -159 349 -88 Q375 58 415 60 L417 24 Q587 288 692 612 L689 684 Q745 687 805 888 L787 887 L574 858 Q483 866 481 907 L480 943 L588 931 Q889 946 918 1162 Q1036 1454 1132 1552 ZM976 1058 L977 1041 Q1272 1200 1400 1206 L1399 1242 Q1236 1282 1230 1395 L1208 1483 L1190 1482 Q1097 1388 976 1058 ZM1405 721 L1408 667 L1429 597 L1432 524 Q1447 525 1574 551 L1573 587 Q1429 604 1423 722 L1405 721 ZM447 133 L448 115 Q449 80 415 78 L414 95 Q416 131 447 133 Z" /><glyph glyph-name="uni5730" unicode="&#x5730;" d="M579 1381 L614 1363 L597 1274 L597 951 L614 951 L919 1076 L937 1076 L1116 1059 L1116 807 Q1269 862 1314 862 L1314 880 Q1314 933 1297 933 Q1332 1161 1332 1220 Q1291 1220 1279 1310 Q1297 1310 1297 1328 Q1403 1300 1403 1202 L1403 898 Q1824 1059 1870 1059 L1959 1059 L1959 1023 Q1755 486 1654 486 Q1547 502 1547 539 Q1686 539 1744 772 Q1763 772 1852 970 L1834 970 Q1649 880 1421 807 L1403 772 L1403 449 L1385 360 L1314 360 Q1247 379 1171 539 L1171 557 Q1177 593 1206 593 L1224 593 Q1268 467 1297 467 L1314 557 Q1314 579 1297 736 Q1314 736 1314 754 L1279 754 L1116 719 Q1080 374 1080 234 L1080 181 Q1080 2 1440 2 L1511 2 Q1852 31 1852 91 L1852 127 L1816 181 Q1821 216 1852 216 Q1959 141 1959 73 Q1959 -65 1458 -106 Q1106 -106 992 91 L992 414 L1010 539 Q683 230 418 55 L418 37 L382 37 L256 20 L256 55 Q259 73 561 270 L525 844 L507 844 Q390 807 346 807 L328 807 L238 826 L238 880 Q525 904 525 970 Q507 1156 507 1274 Q549 1381 579 1381 ZM597 862 L614 772 L614 646 Q614 548 632 396 Q614 365 614 325 L632 325 Q1027 615 1027 646 L1027 683 L1010 683 L956 646 L884 646 L884 701 L1045 807 Q1027 873 1027 1006 Q870 965 597 862 Z" /><glyph glyph-name="uni5740" unicode="&#x5740;" d="M563 1273 L618 1273 Q706 1273 706 897 L706 880 L1046 988 L1082 988 L1082 933 L706 809 L706 665 L688 558 Q688 540 706 540 L688 450 L688 271 L618 271 L618 772 L437 754 L331 754 L331 790 Q349 790 545 844 L618 844 L618 915 Q618 1201 563 1256 L563 1273 ZM1387 1095 L1441 1095 L1459 1005 L1459 970 Q1459 797 1405 558 Q1405 540 1422 540 L1405 450 L1405 432 L1441 308 Q1414 235 1387 235 L1369 235 Q1315 253 1315 343 L1315 469 Q1315 486 1333 486 Q1333 504 1315 504 L1387 1095 ZM1799 772 L1834 772 Q1870 766 1870 736 Q1870 713 1530 540 L1512 540 L1512 611 L1799 772 ZM1064 683 L1101 683 Q1137 447 1137 361 Q1137 240 1046 182 L1046 271 Q1046 331 1064 361 Q1029 603 1029 665 L1064 683 ZM1011 396 L1029 396 Q861 216 545 56 Q545 3 456 3 L384 3 L384 39 L742 253 Q942 396 1011 396 ZM1656 217 Q1870 195 1870 127 L1870 109 Q1870 74 1834 74 L1799 74 Q1737 127 1620 127 Q1137 74 993 74 L957 74 L957 146 L1011 146 Q1470 217 1656 217 Z" /><glyph glyph-name="uni578B" unicode="&#x578b;" d="M1708 1443 L1743 1443 Q1775 1443 1851 995 L1833 869 L1851 781 Q1798 575 1743 458 L1725 458 Q1690 458 1690 494 Q1743 579 1743 763 L1743 942 Q1743 1006 1690 1352 L1708 1443 ZM1100 1317 Q1135 1300 1154 1300 L1154 1282 Q1154 1245 814 1192 L796 1156 L849 1156 Q849 1109 778 816 L796 816 Q1028 816 1028 1031 Q992 1031 974 1138 L1010 1156 Q1077 1156 1118 924 L1136 924 Q1261 951 1261 1013 L1279 1013 Q1315 1007 1315 977 L1315 942 L1118 799 L1118 744 L1136 655 L1118 655 L1136 619 L1118 512 Q1118 494 1136 494 L1118 404 L1118 298 Q1315 328 1315 368 Q1315 424 1261 619 L1261 637 Q1267 673 1297 673 Q1348 673 1422 386 Q1475 423 1655 458 L1655 423 Q1512 298 1422 298 L1422 190 Q1368 31 1368 11 L1368 -7 L1405 11 L1637 11 Q1906 11 1906 -78 L1906 -115 Q1906 -150 1869 -150 Q1766 -60 1547 -60 Q1457 -60 778 -168 L653 -168 Q617 -168 617 -133 L617 -96 L635 -96 Q653 -96 653 -115 Q825 -78 849 -78 L849 -96 Q911 -60 1279 -25 Q1332 113 1332 172 L1332 262 L1315 262 Q1259 262 1207 207 L706 136 L688 172 L688 190 Q688 225 1028 280 L1046 494 L1046 512 Q1046 552 1028 584 Q1046 619 1046 637 L1028 799 Q688 747 688 512 Q646 386 617 386 L581 386 Q545 386 545 441 Q635 603 635 673 Q525 600 313 584 L295 619 L295 637 Q301 673 330 673 Q371 673 403 655 Q683 772 688 799 Q688 862 760 1156 L473 1138 L473 1174 Q473 1209 1100 1317 ZM1368 1101 L1386 1101 Q1529 985 1529 763 L1493 744 Q1434 744 1386 995 Q1343 1031 1315 1031 L1315 1049 Q1315 1075 1368 1101 Z" /><glyph glyph-name="uni57FA" unicode="&#x57fa;" d="M1351 1892 L1404 1892 Q1408 1852 1429 1820 Q1420 1699 1426 1623 Q1441 1569 1556 1569 L1560 1517 L1442 1426 Q1416 865 1432 658 Q1434 640 1416 640 Q1417 622 1435 622 L1424 532 L1430 461 L1517 479 L1590 479 L1596 407 Q1597 393 1480 282 L1482 265 Q1706 265 1996 103 L2016 67 L2018 49 Q2020 24 1968 -4 L1843 -4 Q1426 -135 1340 -201 L1353 -362 L1387 -344 L1459 -344 Q1576 -344 1696 -398 L1700 -452 L1378 -452 Q1318 -452 1256 -505 Q1023 -487 1018 -434 Q1014 -380 1246 -380 L1251 -201 Q1192 -254 1040 -254 L1022 -254 Q986 -254 983 -219 L980 -183 Q1142 -166 1263 -130 L1262 -112 Q1240 157 1401 157 L1419 157 L1424 103 Q1334 103 1348 -77 L1366 -77 Q1591 -22 1750 49 L1858 31 L1873 67 Q1554 210 1415 210 Q752 -183 676 -183 L623 -183 L619 -130 Q617 -106 861 -22 Q857 23 1200 192 L1219 192 L1217 228 L1163 228 L1160 265 Q1307 282 1406 318 L1405 335 Q1344 335 1314 353 Q769 228 483 228 L442 282 L441 300 Q436 358 1052 497 Q1051 515 1087 515 Q1088 497 1105 497 Q1107 522 1276 603 L1274 622 Q1238 640 1220 640 Q1150 640 813 568 L793 603 L791 622 Q907 734 903 783 Q899 837 911 908 Q766 940 759 1016 Q917 1060 915 1086 L903 1230 Q714 1141 623 1141 L605 1141 L480 1159 L474 1230 L565 1212 L898 1302 L872 1623 Q862 1749 952 1749 L1335 1642 L1331 1695 Q1330 1715 1351 1892 ZM958 1677 Q942 1643 944 1623 Q980 1398 983 1355 L1001 1355 Q1351 1453 1343 1552 Q1147 1677 958 1677 ZM990 1267 L1003 1104 L1021 1104 Q1056 1104 1197 1141 L1327 1086 Q1324 1123 1342 1123 L1321 1159 Q1318 1202 1337 1391 L1320 1391 Q1064 1267 990 1267 ZM1010 1016 L1012 998 L1037 908 Q1005 908 989 819 L1008 819 Q1155 940 1241 1033 Q1223 1033 1222 1051 L1010 1016 ZM1283 962 Q1286 918 999 693 L1001 675 Q1064 711 1141 711 L1232 711 L1323 693 Q1322 711 1338 711 Q1319 745 1317 766 Q1321 923 1318 962 L1283 962 ZM1298 550 L1302 497 L1339 497 L1332 585 Q1295 580 1298 550 ZM761 335 L1273 407 L1291 407 L1287 461 Q1284 497 1249 497 Q1002 407 760 353 L761 335 ZM1421 353 Q1454 371 1473 371 L1470 407 Q1445 407 1421 353 Z" /><glyph glyph-name="uni5904" unicode="&#x5904;" d="M1555 1437 L1627 1437 Q1676 1276 1682 1203 L1700 971 L1690 880 Q1851 880 1862 737 L1790 737 L1733 774 L1698 774 L1733 343 Q1736 303 1756 270 Q1736 146 1712 146 Q1629 146 1499 343 L1496 379 Q1628 296 1632 253 L1669 253 L1635 432 L1607 792 Q1532 792 1327 719 Q1387 630 1391 575 L1394 540 L1341 540 Q1339 568 1234 755 Q1397 880 1619 880 Q1617 898 1598 898 L1603 1078 L1581 1347 L1596 1383 Q1559 1383 1556 1420 L1555 1437 ZM768 1402 L805 1402 Q806 1382 827 1347 Q756 959 659 755 Q783 847 949 934 L1039 934 Q1139 934 1172 845 Q1162 561 1071 540 L1074 504 Q1666 28 1925 -52 L1966 -106 L1970 -159 L1899 -159 Q1581 -48 1028 414 Q648 2 451 2 L433 2 L341 20 L339 56 Q616 56 934 469 Q785 534 638 558 L636 593 Q651 593 743 611 Q817 611 999 540 L997 558 Q1079 669 1063 863 Q1045 863 1044 880 Q867 880 602 575 L512 558 L493 593 L490 630 Q781 1242 768 1402 ZM1379 504 L1397 504 Q1433 499 1436 469 L1418 469 Q1382 469 1379 504 Z" /><glyph glyph-name="uni5907" unicode="&#x5907;" d="M822 1587 Q859 1581 859 1550 L715 1103 L751 1084 L769 1084 Q1163 1353 1252 1353 L1306 1353 L1306 1335 Q1306 1186 1056 816 Q1246 584 1575 584 Q1646 545 1683 386 Q1915 351 1915 315 Q1915 285 1807 260 Q1712 279 1646 279 L1628 279 Q1546 -196 1396 -312 L1343 -312 Q1277 -312 1145 -204 L1127 -204 Q1000 -240 983 -240 L983 -204 L822 -204 Q751 10 715 10 Q696 10 696 28 L661 10 Q626 10 626 46 L626 81 Q626 123 715 136 L626 368 Q538 315 393 315 L375 315 Q285 357 285 423 L321 423 L375 386 L411 386 Q597 386 912 781 Q839 895 590 978 L590 996 Q626 1031 661 1247 Q762 1587 822 1587 ZM1199 1300 Q1199 1254 1109 1247 Q840 1032 751 1013 Q751 996 983 870 Q1142 1117 1235 1300 L1199 1300 ZM983 728 Q983 666 787 494 Q946 547 1163 584 Q1163 594 1001 728 L983 728 ZM1450 494 Q1491 494 1557 441 L1575 441 L1575 494 Q1547 494 1503 529 L1485 529 Q1450 524 1450 494 ZM1056 476 L1056 225 Q1324 322 1324 386 Q1396 360 1396 333 Q1396 248 1056 154 L1056 -151 L1091 -133 L1163 -133 Q1304 -240 1343 -240 Q1461 -38 1557 315 Q1370 434 1288 512 L1217 512 Q1172 512 1056 476 ZM733 404 L733 351 Q769 297 822 172 L948 189 L948 441 L930 441 Q753 404 733 404 ZM822 81 Q822 61 912 -151 L930 -151 Q965 -151 965 -115 Q965 -104 948 118 Q877 81 822 81 Z" /><glyph glyph-name="uni591A" unicode="&#x591a;" d="M1019 1489 L1038 1452 L1038 1434 Q1038 1193 787 897 Q805 897 912 772 Q912 858 1162 1129 L1253 1273 L1270 1273 Q1306 1267 1306 1237 L1306 1220 Q1295 1065 842 593 Q777 449 679 449 Q608 476 608 504 L608 557 L698 557 Q775 604 858 736 L734 844 L661 807 L643 844 Q827 1045 984 1398 Q984 1434 842 1434 Q842 1489 1019 1489 ZM1270 861 L1288 826 Q1288 792 1127 610 L1127 593 L1145 593 Q1384 711 1485 736 Q1512 718 1593 718 L1593 665 Q1522 322 948 -141 Q780 -213 716 -213 L679 -159 L679 -141 L734 -141 Q832 -141 1127 146 Q1038 274 1038 306 L930 306 L930 342 Q936 378 966 378 L1056 378 Q1077 378 1217 235 L1235 235 Q1235 291 1324 342 Q1495 616 1503 646 L1467 646 Q912 483 912 378 Q767 271 734 271 L716 306 L716 325 Q1062 639 1198 844 Q1208 844 1270 861 Z" /><glyph glyph-name="uni5927" unicode="&#x5927;" d="M1000 1455 L1054 1455 L1072 1276 Q1072 1183 1054 916 Q1288 951 1288 988 Q1198 988 1198 1024 L1198 1042 Q1414 1006 1432 1006 L1432 970 Q1322 881 1018 809 L1018 754 Q1294 253 1540 -54 Q1746 -54 1809 -162 L1809 -180 Q1396 -180 1396 -72 Q1105 334 1000 610 L965 610 Q965 418 749 90 L624 0 L605 0 Q454 0 408 108 L408 179 L425 179 Q510 72 569 72 Q712 72 912 754 L875 772 Q518 701 461 701 L425 701 Q390 701 390 736 Q390 782 784 845 Q947 845 947 1006 Q965 1062 965 1222 L965 1258 Q965 1276 983 1276 Q947 1335 947 1383 Q973 1455 1000 1455 Z" /><glyph glyph-name="uni5929" unicode="&#x5929;" d="M579 1374 Q637 1339 669 1339 Q802 1339 1208 1374 L1243 1357 Q1276 1374 1316 1374 L1352 1374 L1370 1302 Q1310 1267 1262 1267 L1226 1267 L1118 1285 Q1044 1285 1011 890 L1028 890 Q1334 950 1334 1014 L1190 1105 L1190 1141 L1208 1141 Q1375 1069 1424 997 Q1424 928 1154 835 Q1362 427 1694 63 Q1783 63 1783 -27 Q1756 -99 1729 -99 Q1501 57 1370 297 Q1237 465 1118 799 L1083 799 Q953 799 884 476 Q728 135 543 135 L525 135 Q499 135 471 189 L471 207 Q478 242 508 242 Q508 207 561 207 Q739 308 867 746 L849 746 Q607 691 508 691 L471 691 Q446 691 417 746 Q417 771 471 799 L490 799 L543 764 Q920 822 920 926 Q975 1210 975 1267 L957 1267 Q913 1267 687 1249 L490 1302 L490 1357 L579 1374 Z" /><glyph glyph-name="uni597D" unicode="&#x597d;" d="M575 1381 L611 1381 Q724 1082 731 1005 Q733 978 697 736 L716 736 L870 807 Q909 1094 956 1094 L992 1094 L994 1058 Q1015 798 824 270 Q882 181 1084 181 L1101 181 L1102 164 Q1103 146 1000 91 Q958 91 725 181 Q727 146 691 146 L583 146 Q492 193 489 217 L487 234 Q583 217 597 217 L684 234 L680 288 Q620 357 613 449 L599 628 Q409 546 411 521 L416 467 L379 467 Q305 496 298 593 Q313 627 311 646 L328 646 Q369 646 403 628 Q612 694 605 771 Q642 993 635 1076 Q633 1097 583 1273 L575 1381 ZM1620 1290 Q1729 1273 1732 1237 L1738 1166 Q1739 1145 1493 861 Q1558 742 1561 701 L1793 701 Q1901 689 1904 646 L1907 610 Q1910 575 1874 575 Q1804 628 1620 628 L1585 628 L1599 449 L1590 342 L1611 306 Q1633 28 1481 -105 Q1224 -20 1212 127 L1210 146 L1247 146 Q1387 2 1455 2 Q1532 147 1495 610 Q1478 610 1477 628 Q1393 593 1249 557 Q1248 575 1229 575 Q1231 553 1093 502 L1094 486 Q1068 486 1036 539 L1034 557 Q1118 637 1471 701 L1468 736 Q1368 846 1366 879 Q1439 879 1578 1147 Q1631 1147 1627 1202 L1609 1202 L1130 1147 L1109 1184 L1108 1202 Q1401 1290 1620 1290 ZM702 467 L726 378 L763 378 Q759 423 858 736 Q703 665 706 628 Q696 532 702 467 ZM429 306 L464 306 L468 252 Q433 252 430 288 L429 306 Z" /><glyph glyph-name="uni5982" unicode="&#x5982;" d="M609 1291 L645 1291 Q647 1264 777 1184 L805 1059 L814 951 Q817 915 766 665 Q980 665 960 915 Q962 1007 1038 1076 L1055 1076 Q1091 1071 1094 1041 L1097 1006 Q1026 1006 1051 683 Q1006 644 923 271 Q886 271 895 164 Q947 110 1027 74 L1117 92 L1137 56 Q1115 -15 1089 -15 L1052 -15 Q939 -15 812 92 Q699 56 654 56 L636 56 L634 74 Q632 95 735 164 L733 182 Q669 240 621 469 L616 522 Q399 432 354 432 L366 288 Q339 288 289 361 L279 487 Q664 599 656 701 Q728 909 711 1130 L610 1274 L609 1291 ZM1230 898 L1266 898 Q1310 797 1319 683 Q1545 754 1709 754 L1815 754 Q1924 743 1927 701 L1937 575 Q1938 564 1739 379 Q1846 367 1849 325 L1852 288 L1746 288 Q1728 288 1727 306 L1691 288 L1654 306 L1547 288 L1530 288 Q1494 288 1491 325 Q1510 374 1796 540 Q1793 570 1843 630 L1840 665 Q1800 665 1766 683 Q1341 638 1346 575 Q1349 535 1334 504 Q1378 394 1380 361 L1363 361 L1383 325 L1373 235 L1283 235 L1273 361 Q1270 401 1250 432 L1265 469 Q1238 591 1232 665 L1229 701 Q1226 741 1240 772 L1220 807 Q1235 838 1230 898 ZM724 522 Q726 504 743 504 Q744 484 730 450 Q767 253 817 253 L913 630 L895 630 Q719 585 724 522 Z" /><glyph glyph-name="uni5B58" unicode="&#x5b58;" d="M1119 1714 Q1176 1714 1353 1480 Q1423 1462 1477 1462 L1477 1391 Q1263 1284 995 1212 Q882 989 779 602 Q779 555 832 225 Q832 207 815 207 L832 119 L832 -151 Q820 -438 761 -438 L725 -438 Q653 -438 653 -222 L653 -151 L708 -151 L708 -259 L743 -259 L743 -204 Q743 -151 725 -151 L743 -61 L743 46 Q743 177 708 441 Q692 441 564 154 L511 119 Q417 119 403 172 Q403 190 421 190 Q421 207 403 207 Q432 781 492 835 L617 835 L725 746 L725 764 Q708 764 708 781 Q751 804 869 1175 L851 1175 Q571 1068 385 1068 Q277 1068 277 1158 Q312 1175 330 1175 Q390 1140 438 1140 Q958 1245 958 1409 Q1034 1645 1119 1714 ZM1137 1641 Q1137 1578 1048 1427 L1048 1391 L1066 1354 Q1011 1354 1011 1319 L1030 1319 Q1298 1391 1335 1391 Q1171 1512 1155 1641 L1137 1641 ZM1406 853 Q1639 840 1639 781 L1639 728 Q1621 685 1514 548 Q1621 339 1621 315 Q1702 351 1855 351 L1890 351 Q1926 345 1926 315 L1926 298 Q1926 257 1658 225 L1658 154 Q1658 114 1639 83 Q1658 51 1658 11 Q1592 -420 1459 -420 L1442 -420 Q1287 -359 1209 -168 Q995 68 995 136 Q1177 230 1389 262 Q1532 286 1532 315 L1532 333 Q1406 511 1406 548 Q1494 728 1550 728 L1550 746 Q1514 746 1514 764 Q1418 764 904 656 L904 728 Q1350 853 1406 853 ZM529 764 Q456 525 456 477 L474 351 L456 351 Q474 325 474 244 L511 244 L653 585 L653 674 Q617 674 582 746 Q547 764 529 764 ZM1119 101 Q1119 35 1298 -222 Q1406 -308 1406 -348 L1477 -348 Q1568 -128 1568 172 L1532 190 Q1175 101 1119 101 Z" /><glyph glyph-name="uni5B83" unicode="&#x5b83;" d="M884 1498 L975 1498 Q1315 1409 1315 1301 Q1131 1212 1082 1212 L1064 1212 L1064 1248 Q1136 1248 1172 1319 Q884 1452 884 1480 L884 1498 ZM454 1193 L509 1193 Q526 1037 526 1014 Q1224 1157 1566 1175 Q1764 1153 1764 1104 L1764 1086 Q1764 972 1477 763 L1405 691 Q1405 709 1387 709 Q1387 732 1692 1049 Q1692 1086 1638 1086 Q1226 1086 705 961 Q688 943 562 943 Q652 653 652 584 L652 565 Q652 530 615 530 Q509 685 418 1175 L454 1193 ZM814 709 L884 709 Q956 588 956 512 L956 386 Q1195 449 1351 547 L1351 584 L1298 584 L1298 620 L1387 638 L1424 638 Q1424 619 1440 584 Q1370 374 938 333 L938 297 L884 -98 Q949 -134 1046 -134 Q1459 -134 1674 -44 Q1617 61 1548 135 Q1555 184 1620 225 L1620 242 L1656 242 L1674 171 L1656 171 L1782 -44 L1782 -63 Q1782 -152 1207 -224 Q1189 -224 1189 -205 L1100 -224 L975 -224 Q796 -224 796 -98 L849 315 Q759 315 759 368 L796 368 Q829 351 849 351 L867 386 L867 638 Q848 638 814 656 Q779 638 759 638 L759 691 L796 691 L831 673 L831 691 Q814 691 814 709 Z" /><glyph glyph-name="uni5B89" unicode="&#x5b89;" d="M1000 1444 L1090 1444 Q1286 1365 1287 1336 Q1358 1326 1358 1283 L1358 1247 Q1358 1204 1234 1192 L1234 1210 Q1252 1242 1252 1283 Q965 1397 965 1426 L1000 1444 ZM1591 1139 Q1753 1126 1753 1086 L1753 1014 Q1582 888 1502 888 L1484 888 L1484 907 Q1484 922 1663 1049 L1556 1049 Q1372 1049 625 888 L625 924 Q625 1013 1591 1139 ZM481 1068 L517 1068 L625 512 L607 512 Q523 512 481 746 Q481 807 446 1049 L481 1068 ZM965 907 L983 907 Q1010 907 1053 835 Q1053 746 1018 495 Q1053 495 1053 477 Q1358 477 1358 620 Q1427 763 1448 763 Q1484 763 1484 709 Q1448 546 1448 530 L1681 530 L1681 512 Q1681 483 1395 423 Q1260 83 1197 83 L1197 66 L1305 -25 L1340 -7 L1395 -42 L1537 -42 L1537 -133 Q1537 -168 1502 -168 Q1194 -87 1108 -7 Q1036 -96 947 -96 L876 -96 Q744 -96 733 -42 L733 -25 L750 -25 L876 -42 Q1053 21 1053 66 L1053 83 Q1005 83 911 369 L786 351 L750 369 Q692 334 552 316 L552 369 Q552 411 642 423 L678 404 Q929 459 929 512 Q929 532 965 817 Q930 835 911 835 L911 853 Q911 879 965 907 ZM1018 388 Q1018 332 1108 136 L1126 136 Q1150 136 1305 423 L1269 423 Q1143 423 1018 388 Z" /><glyph glyph-name="uni5B98" unicode="&#x5b98;" d="M1011 1568 L1083 1568 Q1334 1501 1334 1389 Q1544 1408 1637 1408 L1672 1408 Q1798 1408 1798 1282 Q1798 1197 1495 1049 L1512 1014 L1512 996 Q1476 947 1244 817 L1244 799 Q1388 865 1458 925 L1476 888 Q1451 821 1136 692 Q1060 656 1029 603 Q1029 585 1047 585 L1029 495 L1047 460 Q1391 585 1584 585 L1602 585 Q1816 542 1816 460 Q1816 323 1440 192 L1440 173 L1495 173 L1495 192 Q1602 167 1602 137 L1602 102 Q1352 84 1334 66 Q1302 84 1261 84 L1136 84 L1136 137 Q1139 162 1369 227 L1602 369 Q1633 424 1672 424 L1672 460 L1584 477 L1476 477 Q1029 403 1029 280 L1011 155 L1047 12 L1029 12 Q1083 -87 1083 -274 L1047 -291 L975 -291 L904 280 Q851 280 851 316 L851 369 Q851 406 939 406 L939 603 L851 585 L778 585 L778 603 Q957 734 957 781 L957 925 Q898 925 868 943 Q836 925 796 925 L796 943 Q796 1005 994 1031 L994 1068 L957 1068 Q980 1157 1011 1157 L1065 1157 L1172 1068 L1297 1068 Q1428 1068 1691 1265 L1691 1318 L1602 1318 Q1444 1318 475 1121 L475 1068 Q617 758 617 728 L528 728 Q385 1054 385 1139 L385 1247 Q385 1347 475 1371 L475 1354 Q456 1255 456 1212 L510 1212 L1279 1371 L1279 1389 Q1043 1515 1011 1515 L1011 1568 ZM1029 1086 L1029 1049 L1083 1049 Q1118 1049 1118 1086 L1083 1104 Q1048 1086 1029 1086 ZM1047 925 L1047 764 Q1335 961 1369 961 L1369 978 L1334 978 Q1047 966 1047 925 ZM1065 746 L1047 711 L1065 711 L1083 746 L1065 746 Z" /><glyph glyph-name="uni5B9A" unicode="&#x5b9a;" d="M885 1514 L938 1514 Q1172 1370 1172 1353 L1172 1299 L1099 1281 Q885 1429 885 1461 L885 1514 ZM724 1371 L724 1317 Q671 1317 671 1228 L671 1103 Q1141 1210 1350 1210 Q1529 1210 1529 1103 Q1316 816 1172 816 L1172 798 L1225 798 Q1278 834 1494 870 L1512 834 L1512 798 Q1297 767 1297 673 Q1297 512 1225 190 Q1539 319 1637 441 L1672 441 L1672 423 Q1672 252 1172 119 Q1422 -150 1672 -150 Q1672 -168 1851 -186 Q1851 -211 1798 -239 L1619 -239 Q1320 -239 1099 46 Q1064 46 922 190 Q802 -48 635 -115 Q575 -150 527 -150 L492 -150 L492 -96 Q652 -96 849 262 L849 315 Q730 386 706 386 L706 423 L724 459 Q804 459 903 369 Q903 425 993 655 L975 655 Q487 494 438 494 L348 494 L348 530 Q348 561 617 620 Q563 1084 563 1121 Q563 1371 724 1371 ZM671 995 Q671 855 724 673 Q1078 744 1422 1103 L1368 1103 Q981 1103 671 995 ZM975 297 L1154 136 L1154 154 Q1154 172 1136 172 Q1189 532 1243 728 L1225 728 Q1028 689 1028 441 Q999 441 975 297 Z" /><glyph glyph-name="uni5B9E" unicode="&#x5b9e;" d="M1207 1549 Q1338 1447 1583 1371 L1583 1317 Q1570 1264 1404 1228 L1404 1282 Q1476 1282 1476 1317 L1476 1335 Q1333 1335 1117 1514 L1117 1532 L1207 1549 ZM653 1247 L724 1247 L724 1174 L742 1048 Q990 1192 1207 1192 Q1618 1172 1618 960 L1600 960 L1618 924 Q1472 709 1386 709 Q1386 642 1296 351 L1315 351 Q1675 459 1726 459 Q1690 530 1618 530 L1618 584 Q1816 539 1816 495 L1816 441 L1243 227 Q1090 -274 814 -274 L760 -274 L760 -221 Q973 -221 1117 208 L1099 208 Q1064 172 439 48 Q406 64 366 64 L366 119 Q366 165 510 190 L545 190 L545 154 Q1190 273 1190 369 Q1237 548 1261 548 L1243 584 Q1280 615 1333 996 L1350 996 Q1409 978 1422 924 Q1422 888 1386 798 L1422 798 Q1422 839 1476 870 Q1512 870 1512 996 Q1422 1103 1207 1103 L1154 1103 Q1023 1103 779 1013 Q779 1031 760 1031 L760 996 Q805 622 849 512 Q1011 548 1082 548 L1154 548 Q1179 548 1207 495 Q1190 460 1190 441 L1136 441 L1136 477 Q1052 477 742 404 L724 441 L724 477 L779 477 Q731 564 635 1156 L653 1247 ZM903 834 Q1154 775 1154 728 L1154 638 L1064 638 L1064 655 L1082 691 Q855 754 849 798 L849 816 Q869 816 903 834 ZM1296 172 L1333 172 Q1463 172 1655 -42 Q1687 -44 1797 -186 L1834 -186 L1834 -239 Q1834 -274 1797 -274 L1744 -274 Q1473 6 1296 154 L1296 172 Z" /><glyph glyph-name="uni5BB6" unicode="&#x5bb6;" d="M938 1595 L991 1595 Q1278 1498 1278 1434 L1278 1399 L1260 1363 L1278 1363 Q1286 1363 1349 1381 Q1474 1352 1474 1291 Q1474 1225 1134 1112 Q1134 1076 1207 1076 L1207 1059 Q1207 910 938 826 L938 790 L1009 790 Q1187 790 1296 540 Q1559 669 1617 736 L1564 736 L1564 790 L1689 826 Q1724 809 1743 809 L1743 772 Q1743 666 1474 522 Q1474 494 1313 450 L1313 432 Q1475 282 1724 147 Q1761 20 1761 3 L1761 -32 L1724 -32 L1492 165 Q1482 165 1296 271 L1296 253 Q1209 -319 848 -319 Q562 -222 562 -86 Q580 -15 580 39 L615 39 L633 -69 L651 -69 Q651 35 795 218 Q991 414 991 486 L973 486 Q863 486 545 218 L508 200 L437 200 L437 253 Q675 492 830 611 Q830 683 902 683 L902 718 L865 718 L527 630 L490 630 L490 666 Q491 689 723 772 Q977 909 1116 1023 L1099 1023 Q795 960 651 862 Q651 790 615 790 L598 790 Q520 790 455 1255 L455 1326 Q455 1363 545 1363 L527 1273 Q527 1243 633 951 L1349 1255 L1349 1291 Q1123 1268 1081 1255 L1046 1273 L615 1184 L615 1167 L598 1167 Q562 1167 562 1202 L562 1255 Q897 1363 1207 1363 L1207 1381 Q938 1552 938 1577 L938 1595 ZM938 736 L938 718 Q938 683 1009 683 L1009 630 Q973 558 902 558 L902 575 Q830 558 830 486 Q952 558 1046 558 Q1081 517 1081 450 L1099 450 Q1207 492 1207 504 Q1150 718 956 718 Q956 736 938 736 ZM687 -69 Q746 -230 812 -230 L883 -230 Q1134 -230 1224 343 L1134 361 L1046 361 L687 -69 Z" /><glyph glyph-name="uni5BF9" unicode="&#x5bf9;" d="M1548 1480 L1565 1480 Q1614 1468 1656 1391 L1656 1247 Q1679 1247 1870 1086 Q1925 1086 1996 1068 L1996 1013 Q1996 943 1673 943 Q1691 536 1691 440 Q1691 -205 1565 -205 L1548 -205 Q1467 -164 1333 136 L1351 136 Q1378 133 1548 -80 Q1548 14 1583 260 L1583 925 L1548 925 Q1185 888 1064 852 Q1064 870 1046 870 Q1046 826 831 512 L831 494 Q1064 356 1064 333 L1064 297 Q1064 260 1010 260 Q980 260 741 440 Q538 171 330 171 Q204 171 204 423 L239 423 Q280 244 330 244 Q470 244 670 494 Q453 673 330 673 L330 726 L418 744 Q568 700 741 565 Q915 776 938 907 Q994 907 1046 1049 L1010 1068 L831 1068 Q652 1068 473 1031 L436 1086 Q436 1157 922 1157 L975 1157 Q1009 1157 1118 1104 L1118 1031 L1099 943 Q1350 996 1565 1013 L1583 1104 L1548 1480 ZM1673 1157 Q1673 1139 1656 1139 L1673 1104 L1673 1086 L1656 1049 L1691 1031 L1835 1031 L1835 1049 Q1767 1049 1673 1157 ZM1459 656 L1477 656 L1477 620 Q1208 459 1208 423 Q1190 423 1190 369 Q1216 369 1243 315 L1243 297 L1225 297 Q1099 337 1099 440 Q1260 656 1459 656 Z" /><glyph glyph-name="uni5C0F" unicode="&#x5c0f;" d="M992 1258 L1011 1258 Q1171 1258 1171 700 Q1171 611 1208 143 Q1190 17 1154 17 L1100 17 Q921 207 921 323 L939 323 Q1050 239 1064 143 L1082 143 Q1082 323 1100 323 Q1082 357 1082 377 Q1082 1239 992 1239 L992 1258 ZM1567 771 Q1810 771 1855 377 L1819 358 L1746 358 Q1688 718 1549 718 Q1567 753 1567 771 ZM471 683 L525 683 Q525 617 453 539 L453 484 Q453 358 580 358 L633 358 L633 342 Q633 315 580 287 L471 287 Q345 366 345 502 Q345 619 471 683 Z" /><glyph glyph-name="uni5C31" unicode="&#x5c31;" d="M563 1416 L599 1416 Q616 1416 616 1398 L652 1416 Q921 1342 921 1290 Q921 1255 885 1255 Q563 1356 563 1416 ZM1797 1237 L1815 1237 Q1851 1231 1851 1201 L1886 1219 Q1926 1215 1994 1112 L1994 1094 Q1994 1058 1959 1058 Q1919 1058 1886 1183 L1870 1183 Q1870 1112 1833 1112 Q1762 1139 1762 1166 L1762 1201 Q1768 1237 1797 1237 ZM1045 1201 L1189 1201 L1189 1112 Q1150 1112 1117 1129 Q392 897 115 897 L115 968 L133 968 Q235 968 957 1166 Q1001 1166 1045 1201 ZM1565 1094 Q1601 1088 1601 1058 L1601 1022 L1583 807 L1601 807 Q1659 844 1690 844 L1672 879 L1690 879 Q1797 861 1797 826 Q1779 777 1565 700 Q1444 74 1243 74 L1225 109 L1225 144 Q1332 275 1332 306 Q1422 473 1458 663 L1440 663 Q1373 628 1153 575 Q1117 575 1117 610 Q1117 655 1458 754 Q1525 1076 1546 1076 Q1546 1094 1565 1094 ZM652 968 Q689 963 689 932 L670 844 Q955 914 1010 914 Q1100 885 1100 807 Q1100 780 939 646 L974 646 L974 593 Q939 539 921 467 Q921 449 939 449 L921 360 L921 252 Q1153 235 1153 162 L1153 127 Q1153 91 1117 91 L1082 91 Q1006 162 939 162 L921 162 L939 74 L939 56 Q939 -141 885 -141 L849 -141 Q826 -141 759 -34 L759 2 L831 2 L831 20 Q831 142 813 235 Q831 459 866 575 Q689 482 689 431 L689 413 L670 413 Q563 413 563 575 Q563 707 545 771 Q606 962 652 968 ZM759 754 L652 754 L652 610 Q657 575 689 575 Q689 603 903 754 Q903 771 957 771 L957 807 Q788 754 759 754 ZM1601 575 Q1663 575 1709 144 Q1774 56 1851 56 Q1977 126 2012 288 L1994 325 L1994 431 L2030 431 Q2084 260 2084 127 Q2084 49 1851 -34 Q1659 -34 1583 199 L1583 467 L1565 557 L1601 575 ZM545 343 Q592 329 634 252 L634 217 L581 217 Q581 201 616 38 L581 20 L526 20 Q491 20 491 56 L491 162 L473 270 Q486 325 545 343 Z" /></font>
</defs>
</svg>
